<svg width="1280" height="260" viewBox="0 0 1280 260" fill="none" xmlns="http://www.w3.org/2000/svg">
<rect width="1280" height="260" fill="white"/>
<path d="M406 65.375C406 57.4531 399.297 50.75 391.375 50.75H364.562L360.602 41C358.469 35.2109 352.984 31.25 346.891 31.25H308.805C302.711 31.25 297.227 35.2109 295.094 41L291.438 50.75H264.625C256.398 50.75 250 57.4531 250 65.375V153.125C250 161.352 256.398 167.75 264.625 167.75H391.375C399.297 167.75 406 161.352 406 153.125V65.375ZM364.562 109.25C364.562 129.664 348.109 145.812 328 145.812C307.586 145.812 291.438 129.664 291.438 109.25C291.438 89.1406 307.586 72.6875 328 72.6875C348.109 72.6875 364.562 89.1406 364.562 109.25ZM354.812 109.25C354.812 94.625 342.625 82.4375 328 82.4375C313.07 82.4375 301.188 94.625 301.188 109.25C301.188 124.18 313.07 136.062 328 136.062C342.625 136.062 354.812 124.18 354.812 109.25Z" fill="url(#paint0_linear)" fill-opacity="0.5"/>
<path d="M259.594 219.952H270.682V233.812C269.362 234.268 267.838 234.64 266.11 234.928C264.406 235.216 262.618 235.36 260.746 235.36C258.274 235.36 256.102 234.88 254.23 233.92C252.382 232.96 250.93 231.496 249.874 229.528C248.842 227.56 248.326 225.076 248.326 222.076C248.326 219.388 248.842 217.06 249.874 215.092C250.906 213.124 252.418 211.612 254.41 210.556C256.426 209.476 258.898 208.936 261.826 208.936C263.434 208.936 264.958 209.092 266.398 209.404C267.838 209.692 269.086 210.076 270.142 210.556L267.946 215.992C267.034 215.536 266.074 215.2 265.066 214.984C264.058 214.744 262.99 214.624 261.862 214.624C260.326 214.624 259.09 214.972 258.154 215.668C257.218 216.364 256.534 217.288 256.102 218.44C255.694 219.592 255.49 220.864 255.49 222.256C255.49 224.656 255.994 226.492 257.002 227.764C258.01 229.012 259.45 229.636 261.322 229.636C261.73 229.636 262.222 229.612 262.798 229.564C263.398 229.492 263.854 229.42 264.166 229.348V225.316H259.594V219.952ZM287.539 214.732C287.923 214.732 288.319 214.756 288.727 214.804C289.135 214.852 289.435 214.9 289.627 214.948L289.015 221.428C288.775 221.38 288.475 221.332 288.115 221.284C287.779 221.236 287.299 221.212 286.675 221.212C286.099 221.212 285.475 221.296 284.803 221.464C284.155 221.632 283.591 222.004 283.111 222.58C282.631 223.132 282.391 224.008 282.391 225.208V235H275.515V215.092H280.627L281.707 218.26H282.031C282.583 217.276 283.351 216.448 284.335 215.776C285.343 215.08 286.411 214.732 287.539 214.732ZM301.407 214.732C303.927 214.732 305.895 215.356 307.311 216.604C308.727 217.852 309.435 219.628 309.435 221.932V235H304.683L303.351 232.372H303.207C302.655 233.068 302.079 233.644 301.479 234.1C300.903 234.532 300.231 234.844 299.463 235.036C298.695 235.252 297.759 235.36 296.655 235.36C294.927 235.36 293.487 234.832 292.335 233.776C291.183 232.72 290.607 231.1 290.607 228.916C290.607 226.78 291.339 225.196 292.803 224.164C294.291 223.132 296.439 222.556 299.247 222.436L302.559 222.328V222.04C302.559 221.152 302.343 220.528 301.911 220.168C301.479 219.784 300.891 219.592 300.147 219.592C299.355 219.592 298.479 219.736 297.519 220.024C296.559 220.288 295.587 220.636 294.603 221.068L292.623 216.532C293.775 215.932 295.071 215.488 296.511 215.2C297.975 214.888 299.607 214.732 301.407 214.732ZM301.011 226.18C299.763 226.228 298.875 226.456 298.347 226.864C297.843 227.248 297.591 227.8 297.591 228.52C297.591 229.192 297.771 229.696 298.131 230.032C298.491 230.344 298.971 230.5 299.571 230.5C300.411 230.5 301.119 230.236 301.695 229.708C302.295 229.18 302.595 228.496 302.595 227.656V226.108L301.011 226.18ZM320.308 235.36C318.268 235.36 316.576 234.484 315.232 232.732C313.912 230.98 313.252 228.424 313.252 225.064C313.252 221.656 313.924 219.088 315.268 217.36C316.636 215.608 318.4 214.732 320.56 214.732C321.904 214.732 322.972 215.008 323.764 215.56C324.58 216.112 325.252 216.808 325.78 217.648H325.924C325.828 217.144 325.744 216.448 325.672 215.56C325.624 214.672 325.6 213.808 325.6 212.968V207.64H332.512V235H327.328L325.852 232.48H325.6C325.12 233.272 324.46 233.956 323.62 234.532C322.78 235.084 321.676 235.36 320.308 235.36ZM323.116 229.924C324.22 229.924 325 229.576 325.456 228.88C325.912 228.184 326.152 227.116 326.176 225.676V225.136C326.176 223.576 325.948 222.376 325.492 221.536C325.06 220.696 324.244 220.276 323.044 220.276C322.228 220.276 321.544 220.672 320.992 221.464C320.464 222.256 320.2 223.492 320.2 225.172C320.2 226.828 320.464 228.04 320.992 228.808C321.544 229.552 322.252 229.924 323.116 229.924ZM340.741 207.064C341.725 207.064 342.577 207.268 343.297 207.676C344.041 208.084 344.413 208.9 344.413 210.124C344.413 211.3 344.041 212.104 343.297 212.536C342.577 212.944 341.725 213.148 340.741 213.148C339.733 213.148 338.869 212.944 338.149 212.536C337.453 212.104 337.105 211.3 337.105 210.124C337.105 208.9 337.453 208.084 338.149 207.676C338.869 207.268 339.733 207.064 340.741 207.064ZM344.161 215.092V235H337.285V215.092H344.161ZM357.92 214.732C360.824 214.732 363.116 215.488 364.796 217C366.476 218.512 367.316 220.792 367.316 223.84V226.9H355.04C355.088 227.932 355.472 228.784 356.192 229.456C356.936 230.128 358.004 230.464 359.396 230.464C360.644 230.464 361.784 230.344 362.816 230.104C363.848 229.864 364.916 229.48 366.02 228.952V233.884C365.06 234.388 364.004 234.76 362.852 235C361.724 235.24 360.296 235.36 358.568 235.36C356.552 235.36 354.752 235.012 353.168 234.316C351.608 233.596 350.372 232.48 349.46 230.968C348.548 229.456 348.092 227.524 348.092 225.172C348.092 222.772 348.5 220.804 349.316 219.268C350.156 217.732 351.308 216.592 352.772 215.848C354.26 215.104 355.976 214.732 357.92 214.732ZM358.172 219.412C357.356 219.412 356.672 219.664 356.12 220.168C355.592 220.672 355.28 221.476 355.184 222.58H361.088C361.064 221.692 360.8 220.948 360.296 220.348C359.816 219.724 359.108 219.412 358.172 219.412ZM383.666 214.732C385.73 214.732 387.41 215.308 388.706 216.46C390.002 217.612 390.65 219.472 390.65 222.04V235H383.774V224.128C383.774 222.808 383.582 221.812 383.198 221.14C382.814 220.468 382.202 220.132 381.362 220.132C380.066 220.132 379.19 220.66 378.734 221.716C378.302 222.772 378.086 224.296 378.086 226.288V235H371.21V215.092H376.394L377.33 217.72H377.582C378.206 216.784 379.022 216.052 380.03 215.524C381.062 214.996 382.274 214.732 383.666 214.732ZM405.083 229.924C405.707 229.924 406.271 229.864 406.775 229.744C407.303 229.6 407.843 229.432 408.395 229.24V234.244C407.651 234.556 406.859 234.82 406.019 235.036C405.179 235.252 404.111 235.36 402.815 235.36C401.519 235.36 400.379 235.156 399.395 234.748C398.435 234.34 397.679 233.644 397.127 232.66C396.575 231.652 396.299 230.248 396.299 228.448V220.24H393.887V217.432L396.947 215.272L398.711 211.096H403.211V215.092H408.107V220.24H403.211V227.98C403.211 229.276 403.835 229.924 405.083 229.924Z" fill="#727272"/>
<path d="M916.375 53.75C924.297 53.75 931 47.3516 931 39.125C931 31.2031 924.297 24.5 916.375 24.5C908.148 24.5 901.75 31.2031 901.75 39.125C901.75 47.3516 908.148 53.75 916.375 53.75ZM915.156 90.6172C916.68 92.1406 918.812 92.75 920.945 92.75C920.945 92.75 920.945 92.75 921.25 92.75H940.75C945.93 92.75 950.5 88.4844 950.5 83C950.5 77.8203 945.93 73.25 940.75 73.25H924.602L902.969 55.8828C901.141 54.6641 899.008 53.75 896.875 53.75C894.438 53.75 892 54.6641 890.477 56.1875L856.352 85.4375C854.219 87.2656 853 90.0078 853 92.75C853 96.4062 854.523 99.1484 857.266 100.977L882.25 117.734V151.25C882.25 156.734 886.516 161 892 161C897.18 161 901.75 156.734 901.75 151.25V112.25C901.445 108.898 899.922 106.156 897.18 104.328L884.688 95.7969L902.359 80.5625L915.156 90.6172ZM950.5 102.5C928.867 102.5 911.5 120.172 911.5 141.5C911.5 163.133 928.867 180.5 950.5 180.5C971.828 180.5 989.5 163.133 989.5 141.5C989.5 120.172 971.828 102.5 950.5 102.5ZM950.5 161C939.531 161 931 152.469 931 141.5C931 130.836 939.531 122 950.5 122C961.164 122 970 130.836 970 141.5C970 152.469 961.164 161 950.5 161ZM833.5 102.5C811.867 102.5 794.5 120.172 794.5 141.5C794.5 163.133 811.867 180.5 833.5 180.5C854.828 180.5 872.5 163.133 872.5 141.5C872.5 120.172 854.828 102.5 833.5 102.5ZM833.5 161C822.531 161 814 152.469 814 141.5C814 130.836 822.531 122 833.5 122C844.164 122 853 130.836 853 141.5C853 152.469 844.164 161 833.5 161Z" fill="#F40606" fill-opacity="0.5"/>
<path d="M807.638 222.112C807.638 224.776 807.206 227.104 806.342 229.096C805.502 231.064 804.158 232.6 802.31 233.704C800.486 234.808 798.098 235.36 795.146 235.36C792.266 235.36 789.902 234.808 788.054 233.704C786.206 232.6 784.838 231.052 783.95 229.06C783.086 227.068 782.654 224.74 782.654 222.076C782.654 219.412 783.098 217.096 783.986 215.128C784.874 213.136 786.242 211.6 788.09 210.52C789.938 209.44 792.302 208.9 795.182 208.9C798.11 208.9 800.486 209.452 802.31 210.556C804.158 211.636 805.502 213.172 806.342 215.164C807.206 217.132 807.638 219.448 807.638 222.112ZM789.962 222.112C789.962 224.44 790.358 226.264 791.15 227.584C791.966 228.904 793.298 229.564 795.146 229.564C797.066 229.564 798.41 228.904 799.178 227.584C799.946 226.264 800.33 224.44 800.33 222.112C800.33 219.784 799.946 217.948 799.178 216.604C798.41 215.26 797.078 214.588 795.182 214.588C793.286 214.588 791.942 215.26 791.15 216.604C790.358 217.948 789.962 219.784 789.962 222.112ZM824.05 214.732C826.258 214.732 827.986 215.62 829.234 217.396C830.482 219.148 831.106 221.68 831.106 224.992C831.106 227.248 830.782 229.156 830.134 230.716C829.51 232.252 828.646 233.416 827.542 234.208C826.462 234.976 825.226 235.36 823.834 235.36C822.442 235.36 821.35 235.108 820.558 234.604C819.79 234.1 819.19 233.584 818.758 233.056H818.542C818.59 233.512 818.638 234.004 818.686 234.532C818.734 235.06 818.758 235.672 818.758 236.368V243.64H811.882V215.092H817.462L818.434 217.612H818.758C819.238 216.844 819.886 216.172 820.702 215.596C821.542 215.02 822.658 214.732 824.05 214.732ZM821.458 220.132C820.45 220.132 819.754 220.492 819.37 221.212C819.01 221.932 818.806 223 818.758 224.416V224.956C818.758 226.54 818.95 227.752 819.334 228.592C819.718 229.408 820.438 229.816 821.494 229.816C822.358 229.816 823.006 229.444 823.438 228.7C823.894 227.932 824.122 226.672 824.122 224.92C824.122 223.168 823.894 221.932 823.438 221.212C822.982 220.492 822.322 220.132 821.458 220.132ZM844.735 214.732C847.255 214.732 849.223 215.356 850.639 216.604C852.055 217.852 852.763 219.628 852.763 221.932V235H848.011L846.679 232.372H846.535C845.983 233.068 845.407 233.644 844.807 234.1C844.231 234.532 843.559 234.844 842.791 235.036C842.023 235.252 841.087 235.36 839.983 235.36C838.255 235.36 836.815 234.832 835.663 233.776C834.511 232.72 833.935 231.1 833.935 228.916C833.935 226.78 834.667 225.196 836.131 224.164C837.619 223.132 839.767 222.556 842.575 222.436L845.887 222.328V222.04C845.887 221.152 845.671 220.528 845.239 220.168C844.807 219.784 844.219 219.592 843.475 219.592C842.683 219.592 841.807 219.736 840.847 220.024C839.887 220.288 838.915 220.636 837.931 221.068L835.951 216.532C837.103 215.932 838.399 215.488 839.839 215.2C841.303 214.888 842.935 214.732 844.735 214.732ZM844.339 226.18C843.091 226.228 842.203 226.456 841.675 226.864C841.171 227.248 840.919 227.8 840.919 228.52C840.919 229.192 841.099 229.696 841.459 230.032C841.819 230.344 842.299 230.5 842.899 230.5C843.739 230.5 844.447 230.236 845.023 229.708C845.623 229.18 845.923 228.496 845.923 227.656V226.108L844.339 226.18ZM866.516 235.36C863.492 235.36 861.08 234.544 859.28 232.912C857.48 231.28 856.58 228.688 856.58 225.136C856.58 222.712 857.036 220.744 857.948 219.232C858.86 217.696 860.096 216.568 861.656 215.848C863.24 215.104 865.04 214.732 867.056 214.732C868.28 214.732 869.432 214.864 870.512 215.128C871.616 215.392 872.636 215.764 873.572 216.244L871.556 221.32C870.74 220.96 869.972 220.672 869.252 220.456C868.556 220.24 867.824 220.132 867.056 220.132C866.024 220.132 865.184 220.54 864.536 221.356C863.888 222.172 863.564 223.42 863.564 225.1C863.564 226.828 863.888 228.064 864.536 228.808C865.208 229.528 866.06 229.888 867.092 229.888C868.076 229.888 869.06 229.732 870.044 229.42C871.052 229.108 872 228.676 872.888 228.124V233.596C872.072 234.124 871.148 234.556 870.116 234.892C869.084 235.204 867.884 235.36 866.516 235.36ZM880.343 207.064C881.327 207.064 882.179 207.268 882.899 207.676C883.643 208.084 884.015 208.9 884.015 210.124C884.015 211.3 883.643 212.104 882.899 212.536C882.179 212.944 881.327 213.148 880.343 213.148C879.335 213.148 878.471 212.944 877.751 212.536C877.055 212.104 876.707 211.3 876.707 210.124C876.707 208.9 877.055 208.084 877.751 207.676C878.471 207.268 879.335 207.064 880.343 207.064ZM883.763 215.092V235H876.887V215.092H883.763ZM898.314 229.924C898.938 229.924 899.502 229.864 900.006 229.744C900.534 229.6 901.074 229.432 901.626 229.24V234.244C900.882 234.556 900.09 234.82 899.25 235.036C898.41 235.252 897.342 235.36 896.046 235.36C894.75 235.36 893.61 235.156 892.626 234.748C891.666 234.34 890.91 233.644 890.358 232.66C889.806 231.652 889.53 230.248 889.53 228.448V220.24H887.118V217.432L890.178 215.272L891.942 211.096H896.442V215.092H901.338V220.24H896.442V227.98C896.442 229.276 897.066 229.924 898.314 229.924ZM902.704 215.092H909.94L913.324 226.504C913.396 226.744 913.456 227.068 913.504 227.476C913.576 227.884 913.624 228.28 913.648 228.664H913.792C913.84 228.184 913.9 227.776 913.972 227.44C914.068 227.08 914.152 226.78 914.224 226.54L917.68 215.092H924.7L916.816 236.26C916.216 237.868 915.508 239.224 914.692 240.328C913.9 241.432 912.916 242.26 911.74 242.812C910.564 243.364 909.1 243.64 907.348 243.64C906.724 243.64 906.184 243.604 905.728 243.532C905.272 243.484 904.876 243.424 904.54 243.352V237.952C904.804 238 905.116 238.048 905.476 238.096C905.86 238.144 906.256 238.168 906.664 238.168C907.792 238.168 908.62 237.832 909.148 237.16C909.7 236.512 910.144 235.756 910.48 234.892L910.552 234.712L902.704 215.092ZM926.009 224.776C926.009 222.808 926.165 220.864 926.477 218.944C926.789 217 927.305 215.152 928.025 213.4C928.769 211.624 929.741 210.016 930.941 208.576H936.665C935.057 210.832 933.881 213.376 933.137 216.208C932.417 219.04 932.057 221.884 932.057 224.74C932.057 226.588 932.213 228.46 932.525 230.356C932.837 232.252 933.329 234.076 934.001 235.828C934.697 237.604 935.573 239.224 936.629 240.688H930.941C929.741 239.272 928.769 237.7 928.025 235.972C927.305 234.244 926.789 232.432 926.477 230.536C926.165 228.616 926.009 226.696 926.009 224.776ZM957.486 222.184C957.486 224.92 957.186 227.272 956.586 229.24C956.01 231.208 955.038 232.72 953.67 233.776C952.326 234.832 950.502 235.36 948.198 235.36C944.982 235.36 942.63 234.196 941.142 231.868C939.654 229.54 938.91 226.312 938.91 222.184C938.91 219.4 939.198 217.024 939.774 215.056C940.374 213.088 941.358 211.576 942.726 210.52C944.094 209.464 945.918 208.936 948.198 208.936C951.414 208.936 953.766 210.1 955.254 212.428C956.742 214.756 957.486 218.008 957.486 222.184ZM945.822 222.184C945.822 224.704 945.978 226.612 946.29 227.908C946.602 229.18 947.238 229.816 948.198 229.816C949.158 229.816 949.794 229.18 950.106 227.908C950.418 226.636 950.574 224.728 950.574 222.184C950.574 219.64 950.418 217.72 950.106 216.424C949.794 215.128 949.158 214.48 948.198 214.48C947.238 214.48 946.602 215.128 946.29 216.424C945.978 217.72 945.822 219.64 945.822 222.184ZM960.256 232.084C960.256 230.836 960.616 229.96 961.336 229.456C962.08 228.952 962.968 228.7 964 228.7C964.984 228.7 965.824 228.952 966.52 229.456C967.24 229.96 967.6 230.836 967.6 232.084C967.6 233.26 967.24 234.112 966.52 234.64C965.824 235.168 964.984 235.432 964 235.432C962.968 235.432 962.08 235.168 961.336 234.64C960.616 234.112 960.256 233.26 960.256 232.084ZM980.814 218.152C982.254 218.152 983.562 218.476 984.738 219.124C985.914 219.772 986.85 220.708 987.546 221.932C988.242 223.156 988.59 224.656 988.59 226.432C988.59 229.312 987.726 231.52 985.998 233.056C984.27 234.592 981.654 235.36 978.15 235.36C975.174 235.36 972.726 234.892 970.806 233.956V228.268C971.718 228.676 972.81 229.048 974.082 229.384C975.354 229.72 976.518 229.888 977.574 229.888C978.846 229.888 979.83 229.612 980.526 229.06C981.222 228.508 981.57 227.704 981.57 226.648C981.57 225.664 981.21 224.896 980.49 224.344C979.794 223.792 978.738 223.516 977.322 223.516C976.674 223.516 976.038 223.588 975.414 223.732C974.814 223.852 974.274 223.984 973.794 224.128L971.238 222.868L972.21 209.296H986.862V215.092H978.114L977.79 218.476C978.174 218.404 978.558 218.332 978.942 218.26C979.35 218.188 979.974 218.152 980.814 218.152ZM1001.87 224.776C1001.87 226.696 1001.72 228.616 1001.4 230.536C1001.09 232.432 1000.58 234.244 999.856 235.972C999.136 237.7 998.164 239.272 996.94 240.688H991.252C992.332 239.224 993.208 237.604 993.88 235.828C994.552 234.076 995.044 232.252 995.356 230.356C995.668 228.46 995.824 226.588 995.824 224.74C995.824 221.884 995.464 219.04 994.744 216.208C994.024 213.376 992.848 210.832 991.216 208.576H996.94C998.164 210.016 999.136 211.624 999.856 213.4C1000.58 215.152 1001.09 217 1001.4 218.944C1001.72 220.864 1001.87 222.808 1001.87 224.776Z" fill="#727272"/>
<defs>
<linearGradient id="paint0_linear" x1="336.5" y1="13" x2="302.5" y2="185" gradientUnits="userSpaceOnUse">
<stop offset="0.284533" stop-color="#0029FF"/>
<stop offset="1" stop-color="#FF005C"/>
</linearGradient>
</defs>
</svg>
