<svg width="1280" height="640" viewBox="0 0 1280 640" fill="none" xmlns="http://www.w3.org/2000/svg">
<rect width="1280" height="640" rx="10" fill="#161B22"/>
<path d="M100.383 112.75C98.3906 112.867 96.75 114.508 96.75 116.5C96.75 118.609 98.3906 120.25 100.5 120.25C102.492 120.25 104.25 118.609 104.25 116.5C104.133 114.508 102.492 112.867 100.383 112.75ZM125.578 101.5C124.289 99.2734 120.773 95.6406 111.867 96.6953C109.406 90.6016 105.539 86.5 100.383 86.5C95.3438 86.5 91.4766 90.6016 89.0156 96.6953C80.1094 95.6406 76.5938 99.2734 75.3047 101.5C73.4297 105.016 73.5469 110.172 78.2344 116.5C73.5469 122.945 73.4297 128.102 75.3047 131.5C78.7031 137.711 87.2578 136.656 89.0156 136.422C91.4766 142.516 95.3438 146.5 100.383 146.5C105.539 146.5 109.406 142.516 111.867 136.422C113.625 136.656 122.18 137.711 125.578 131.5C127.453 128.102 127.336 122.945 122.648 116.5C127.336 110.172 127.453 105.016 125.578 101.5ZM81.6328 127.75C81.1641 126.93 81.6328 124.938 83.3906 122.125C84.2109 122.945 85.0312 123.648 85.9688 124.352C86.0859 125.992 86.4375 127.516 86.6719 129.039C83.8594 129.156 82.1016 128.57 81.6328 127.75ZM85.9688 108.766C85.0312 109.469 84.2109 110.172 83.3906 110.992C81.6328 108.18 81.1641 106.188 81.6328 105.25C81.9844 104.547 83.5078 103.961 86.0859 103.961C86.2031 103.961 86.5547 103.961 86.6719 103.961C86.4375 105.602 86.0859 107.125 85.9688 108.766ZM100.383 94C101.555 94 103.078 95.6406 104.367 98.4531C103.078 98.8047 101.789 99.3906 100.383 99.9766C99.0938 99.3906 97.8047 98.8047 96.5156 98.4531C97.8047 95.6406 99.3281 94 100.383 94ZM100.383 139C99.3281 139 97.8047 137.477 96.5156 134.664C97.8047 134.195 99.0938 133.727 100.383 133.141C101.789 133.727 103.078 134.195 104.367 134.664C103.078 137.477 101.555 139 100.383 139ZM100.383 125.875C95.2266 125.875 91.0078 121.773 91.0078 116.5C91.0078 111.344 95.2266 107.125 100.383 107.125C105.656 107.125 109.758 111.344 109.758 116.5C109.758 121.773 105.656 125.875 100.383 125.875ZM119.25 127.75C118.898 128.57 117.023 129.156 114.211 129.039C114.445 127.516 114.797 125.992 114.914 124.352C115.852 123.648 116.672 122.945 117.492 122.125C119.25 124.938 119.719 126.93 119.25 127.75ZM117.492 110.992C116.672 110.172 115.852 109.469 114.914 108.766C114.797 107.125 114.445 105.602 114.211 103.961C114.328 103.961 114.68 103.961 114.797 103.961C117.375 103.961 118.898 104.547 119.25 105.25C119.719 106.188 119.25 108.18 117.492 110.992Z" fill="#5379FF" fill-opacity="0.28"/>
<g filter="url(#filter0_di)">
<path d="M118.859 356.387C116.932 356.387 115.487 356.82 114.523 357.688C113.656 358.458 113.03 359.47 112.645 360.723C111.488 360.434 110.139 360.385 108.598 360.578C107.152 360.771 105.659 360.964 104.117 361.156C102.672 361.349 101.227 361.445 99.7812 361.445C98.4323 361.542 97.276 361.301 96.3125 360.723C95.8307 360.434 95.4453 360.048 95.1562 359.566C94.8672 358.988 94.5299 358.458 94.1445 357.977C93.7591 357.398 93.3737 356.868 92.9883 356.387C92.5065 355.905 92.2174 355.423 92.1211 354.941C91.9284 354.363 92.0729 353.544 92.5547 352.484C93.0365 351.328 93.4701 350.509 93.8555 350.027C94.2409 349.738 94.6745 349.497 95.1562 349.305C95.7344 349.112 96.2643 348.823 96.7461 348.438C98.0951 347.378 99.0586 346.077 99.6367 344.535C100.311 342.897 100.889 341.596 101.371 340.633C102.046 340.151 102.816 339.669 103.684 339.188C104.647 338.609 105.033 337.887 104.84 337.02C103.973 336.538 102.961 336.345 101.805 336.441C100.648 336.441 99.4922 336.393 98.3359 336.297C96.4089 336.297 94.4818 336.152 92.5547 335.863C90.6276 335.574 88.8932 335.333 87.3516 335.141C84.8464 334.659 82.6784 333.503 80.8477 331.672C78.9206 329.841 78.1016 327.529 78.3906 324.734C79.0651 324.445 79.8359 324.301 80.7031 324.301C81.474 324.301 82.3411 324.349 83.3047 324.445C84.1719 324.542 85.0872 324.638 86.0508 324.734C86.918 324.734 87.737 324.59 88.5078 324.301C89.375 324.879 90.194 325.168 90.9648 325.168C91.6393 325.168 92.3138 325.023 92.9883 324.734C93.5664 324.445 94.1445 324.156 94.7227 323.867C95.3008 323.482 95.8307 323.241 96.3125 323.145C96.7943 323.048 97.2279 323.048 97.6133 323.145C97.9987 323.241 98.4323 323.289 98.9141 323.289C99.6849 323.289 100.456 323.193 101.227 323C101.997 322.711 102.913 322.47 103.973 322.277C105.418 322.085 106.911 321.988 108.453 321.988C109.995 321.892 111.296 321.603 112.355 321.121C113.03 320.832 113.801 320.35 114.668 319.676C115.535 318.905 116.161 318.23 116.547 317.652C116.74 317.171 116.788 316.737 116.691 316.352C116.691 315.87 116.788 315.388 116.98 314.906C117.462 313.268 118.281 311.823 119.438 310.57C120.69 309.318 121.702 307.921 122.473 306.379C122.762 305.608 122.954 305.03 123.051 304.645C123.243 304.259 123.388 303.922 123.484 303.633C123.581 303.344 123.677 303.007 123.773 302.621C123.966 302.236 124.303 301.658 124.785 300.887C125.652 299.538 126.52 298.237 127.387 296.984C128.35 295.732 129.458 294.527 130.711 293.371C130.711 292.793 130.807 292.311 131 291.926C131.193 291.444 131.385 290.962 131.578 290.48C134.18 289.421 136.299 288.023 137.938 286.289C139.576 284.555 141.214 282.724 142.852 280.797C142.755 279.833 142.948 279.159 143.43 278.773C143.911 278.292 144.152 277.569 144.152 276.605C144.152 276.124 143.96 275.594 143.574 275.016C143.285 274.341 143.141 273.667 143.141 272.992C143.141 272.221 143.43 271.451 144.008 270.68C144.682 269.812 145.26 269.042 145.742 268.367C146.513 267.596 147.091 266.826 147.477 266.055C147.958 265.284 148.44 264.561 148.922 263.887C149.693 263.02 150.464 262.249 151.234 261.574C152.102 260.9 152.921 260.081 153.691 259.117C154.077 258.539 154.366 257.913 154.559 257.238C154.848 256.467 155.281 255.889 155.859 255.504C156.727 254.926 157.931 254.589 159.473 254.492C161.014 254.396 162.556 254.299 164.098 254.203C165.928 254.107 167.904 253.914 170.023 253.625C172.24 253.24 174.408 252.854 176.527 252.469C178.743 252.083 180.863 251.746 182.887 251.457C185.007 251.072 186.934 250.831 188.668 250.734C190.402 250.542 192.04 250.493 193.582 250.59C195.22 250.686 196.521 250.542 197.484 250.156C198.833 251.312 200.182 252.469 201.531 253.625C202.977 254.685 204.326 255.841 205.578 257.094C205.964 259.021 206.301 260.803 206.59 262.441C206.879 264.079 206.927 265.717 206.734 267.355C206.542 268.126 206.204 268.849 205.723 269.523C205.337 270.198 205.193 270.969 205.289 271.836C205.289 273.281 205.723 274.727 206.59 276.172C207.457 277.521 208.083 279.014 208.469 280.652C208.565 281.423 208.421 282.194 208.035 282.965C207.746 283.639 207.553 284.362 207.457 285.133C207.361 285.904 207.409 286.771 207.602 287.734C207.794 288.602 207.987 289.517 208.18 290.48C208.18 291.637 208.132 292.793 208.035 293.949C207.939 295.105 207.987 296.31 208.18 297.562C208.372 298.815 208.613 300.116 208.902 301.465C209.191 302.717 209.288 304.018 209.191 305.367C208.999 306.716 208.71 307.969 208.324 309.125C208.035 310.281 207.891 311.486 207.891 312.738C207.794 314.473 207.891 316.159 208.18 317.797C208.469 319.339 208.372 320.928 207.891 322.566C208.661 323.53 209.047 324.493 209.047 325.457C209.143 326.421 209.095 327.384 208.902 328.348C208.71 329.311 208.517 330.323 208.324 331.383C208.132 332.346 208.228 333.358 208.613 334.418C208.806 335.092 209.191 335.719 209.77 336.297C210.348 336.779 210.733 337.405 210.926 338.176C211.215 339.139 211.359 340.344 211.359 341.789C211.456 343.138 211.504 344.439 211.504 345.691C211.6 348.775 211.311 351.521 210.637 353.93C210.059 356.339 209.721 358.94 209.625 361.734C209.625 362.987 209.577 364.384 209.48 365.926C209.48 367.467 209.24 368.672 208.758 369.539C208.276 370.117 207.505 370.695 206.445 371.273C205.385 371.948 204.47 372.333 203.699 372.43C202.254 372.526 200.568 372.141 198.641 371.273C196.81 370.406 195.413 369.491 194.449 368.527C193.582 367.564 192.763 366.504 191.992 365.348C191.318 364.191 190.595 362.987 189.824 361.734C189.15 360.482 188.427 359.326 187.656 358.266C186.885 357.109 186.018 356.146 185.055 355.375C184.573 355.086 184.043 354.797 183.465 354.508C182.887 354.219 182.453 353.882 182.164 353.496C181.586 352.533 181.249 351.473 181.152 350.316C181.152 349.064 181.201 347.811 181.297 346.559C181.49 345.21 181.634 343.909 181.73 342.656C181.923 341.404 181.875 340.296 181.586 339.332C181.297 338.368 180.911 337.646 180.43 337.164C179.948 336.586 179.322 336.201 178.551 336.008C177.876 335.719 177.057 335.574 176.094 335.574C175.227 335.478 174.167 335.382 172.914 335.285C168.385 334.996 163.712 334.707 158.895 334.418C154.077 334.129 149.163 334.033 144.152 334.129C143.092 334.129 142.322 334.177 141.84 334.273C141.358 334.37 140.924 334.466 140.539 334.562C140.154 334.562 139.768 334.611 139.383 334.707C138.997 334.803 138.371 334.852 137.504 334.852C135.577 334.948 133.842 335.092 132.301 335.285C130.759 335.382 129.41 335.863 128.254 336.73C127.579 337.212 126.857 338.176 126.086 339.621C125.315 341.066 124.737 342.174 124.352 342.945C123.87 344.102 123.436 345.306 123.051 346.559C122.762 347.811 122.424 349.064 122.039 350.316C121.75 351.473 121.365 352.581 120.883 353.641C120.401 354.701 119.727 355.616 118.859 356.387ZM155.57 318.23C158.846 318.134 161.978 318.086 164.965 318.086C168.048 317.99 170.939 317.845 173.637 317.652C174.022 317.46 174.359 317.315 174.648 317.219C175.034 317.122 175.612 317.171 176.383 317.363C176.383 316.882 176.624 316.641 177.105 316.641C177.587 316.544 177.973 316.4 178.262 316.207C178.647 315.533 178.84 315.003 178.84 314.617C178.84 314.135 178.743 313.75 178.551 313.461C178.454 313.076 178.262 312.69 177.973 312.305C177.78 311.823 177.684 311.197 177.684 310.426C177.684 309.655 177.78 308.884 177.973 308.113C178.262 307.246 178.454 306.379 178.551 305.512C178.647 304.837 178.551 304.115 178.262 303.344C178.069 302.573 178.021 301.802 178.117 301.031C178.214 300.357 178.503 299.779 178.984 299.297C179.466 298.719 179.707 298.092 179.707 297.418C179.707 297.033 179.611 296.599 179.418 296.117C179.322 295.635 179.225 295.154 179.129 294.672C179.033 293.997 178.984 293.323 178.984 292.648C179.081 291.974 179.033 291.396 178.84 290.914C178.647 290.143 178.165 289.421 177.395 288.746C176.624 288.072 176.142 287.349 175.949 286.578C175.66 285.615 175.612 284.555 175.805 283.398C176.094 282.146 176.238 280.941 176.238 279.785C176.142 278.147 175.997 276.654 175.805 275.305C175.612 273.956 175.13 272.607 174.359 271.258C173.299 270.68 172.48 270.487 171.902 270.68C171.421 270.776 170.987 271.113 170.602 271.691C170.312 272.173 170.023 272.751 169.734 273.426C169.542 274.1 169.156 274.678 168.578 275.16C165.977 277.473 163.953 279.833 162.508 282.242C161.062 284.555 159.28 287.108 157.16 289.902C156.293 290.962 155.378 292.022 154.414 293.082C153.547 294.142 152.728 295.298 151.957 296.551C151.283 297.803 150.753 299.104 150.367 300.453C149.982 301.802 149.885 303.296 150.078 304.934C149.596 305.704 149.163 306.283 148.777 306.668C148.488 306.957 148.151 307.246 147.766 307.535C147.38 307.824 146.947 308.161 146.465 308.547C146.079 308.932 145.598 309.462 145.02 310.137C143.96 311.486 142.803 312.883 141.551 314.328C140.298 315.677 139.479 317.171 139.094 318.809C140.828 319.29 142.322 319.531 143.574 319.531C144.827 319.531 146.031 319.483 147.188 319.387C148.44 319.194 149.693 319.001 150.945 318.809C152.294 318.52 153.836 318.327 155.57 318.23ZM225.234 351.328C225.909 349.786 226.487 348.341 226.969 346.992C227.451 345.547 228.077 343.957 228.848 342.223C229.233 341.259 229.522 340.247 229.715 339.188C229.908 338.128 230.245 337.068 230.727 336.008C231.208 335.141 231.786 334.273 232.461 333.406C233.232 332.539 233.81 331.576 234.195 330.516C234.773 328.878 234.822 327.047 234.34 325.023C233.858 322.904 233.906 320.784 234.484 318.664C234.966 316.641 235.496 314.665 236.074 312.738C236.749 310.715 237.182 308.932 237.375 307.391C237.568 306.331 237.664 305.271 237.664 304.211C237.664 303.055 237.76 301.898 237.953 300.742C238.146 299.49 238.531 298.285 239.109 297.129C239.688 295.876 240.025 294.72 240.121 293.66C240.314 291.444 239.784 289.469 238.531 287.734C237.375 285.904 236.171 284.362 234.918 283.109C235.014 282.531 235.303 282.098 235.785 281.809C236.363 281.423 236.797 281.279 237.086 281.375C238.242 281.568 239.543 281.953 240.988 282.531C242.434 283.109 243.831 283.495 245.18 283.688C246.336 283.88 247.589 283.88 248.938 283.688C250.383 283.495 251.876 283.495 253.418 283.688C255.056 283.88 257.031 284.073 259.344 284.266C261.656 284.458 263.921 284.555 266.137 284.555C268.642 284.651 271.051 284.603 273.363 284.41C275.676 284.217 277.94 284.266 280.156 284.555C281.794 284.747 283.288 285.181 284.637 285.855C285.986 286.53 287.479 286.771 289.117 286.578C290.466 288.12 292.008 289.324 293.742 290.191C295.573 290.962 297.211 291.974 298.656 293.227C300.68 294.865 302.414 296.84 303.859 299.152C305.305 301.368 307.039 303.296 309.062 304.934C309.062 305.704 309.255 306.427 309.641 307.102C310.026 307.776 310.267 308.547 310.363 309.414C310.363 309.896 310.267 310.474 310.074 311.148C309.882 311.727 309.785 312.305 309.785 312.883C309.882 313.75 310.171 314.473 310.652 315.051C311.134 315.533 311.327 316.303 311.23 317.363C311.134 320.736 310.267 324.06 308.629 327.336C306.991 330.612 305.353 333.503 303.715 336.008C302.655 336.104 301.884 336.538 301.402 337.309C301.017 338.079 300.487 338.947 299.812 339.91C298.849 341.259 297.693 342.415 296.344 343.379C295.091 344.246 293.935 345.354 292.875 346.703C290.755 347.474 288.78 348.486 286.949 349.738C285.215 350.991 283.24 352.147 281.023 353.207C280.253 353.592 279.434 353.978 278.566 354.363C277.796 354.652 277.025 354.99 276.254 355.375C275.29 355.664 274.375 356.001 273.508 356.387C272.641 356.772 271.822 357.061 271.051 357.254C270.473 357.447 269.846 357.495 269.172 357.398C268.594 357.302 268.016 357.35 267.438 357.543C266.185 357.832 264.98 358.362 263.824 359.133C262.668 359.807 261.512 360.241 260.355 360.434C259.007 360.626 257.658 360.53 256.309 360.145C254.96 359.759 253.659 359.422 252.406 359.133C250.768 359.326 249.13 359.422 247.492 359.422C245.854 359.326 244.168 359.229 242.434 359.133C240.699 359.036 238.868 359.036 236.941 359.133C235.014 359.229 232.943 359.47 230.727 359.855C230.148 359.952 229.522 360.145 228.848 360.434C228.27 360.723 227.691 360.915 227.113 361.012C226.053 361.204 224.849 361.301 223.5 361.301C222.247 361.301 221.043 361.301 219.887 361.301C219.405 361.301 218.827 361.253 218.152 361.156C217.478 361.156 216.852 361.108 216.273 361.012C215.599 360.915 215.021 360.723 214.539 360.434C214.057 360.241 213.768 359.952 213.672 359.566C213.576 358.988 213.768 358.507 214.25 358.121C214.635 357.639 215.165 357.254 215.84 356.965C216.418 356.579 217.044 356.29 217.719 356.098C218.393 355.809 218.923 355.568 219.309 355.375C220.465 354.701 221.477 353.978 222.344 353.207C223.115 352.34 224.078 351.714 225.234 351.328ZM263.68 295.395C262.909 296.165 262.331 297.081 261.945 298.141C261.656 299.201 261.367 300.357 261.078 301.609C260.885 302.766 260.693 303.97 260.5 305.223C260.307 306.475 260.018 307.68 259.633 308.836C259.247 309.607 258.862 310.378 258.477 311.148C258.091 311.823 257.802 312.546 257.609 313.316C257.128 315.147 256.839 316.93 256.742 318.664C256.646 320.398 256.357 322.229 255.875 324.156C255.682 325.216 255.297 326.276 254.719 327.336C254.237 328.299 253.9 329.311 253.707 330.371C253.514 331.431 253.514 332.443 253.707 333.406C253.9 334.37 253.9 335.382 253.707 336.441C253.514 337.212 253.225 337.935 252.84 338.609C252.551 339.284 252.31 340.007 252.117 340.777C251.635 343.379 252.117 345.306 253.562 346.559C255.008 347.715 256.742 348.534 258.766 349.016C262.234 349.786 265.414 349.594 268.305 348.438C271.292 347.185 273.652 345.788 275.387 344.246C276.639 342.801 277.94 341.259 279.289 339.621C280.638 337.887 281.698 336.008 282.469 333.984C282.758 333.214 283.047 332.202 283.336 330.949C283.625 329.6 283.962 328.299 284.348 327.047C284.637 325.987 284.974 325.023 285.359 324.156C285.841 323.193 286.227 322.229 286.516 321.266C287.576 318.76 287.961 316.111 287.672 313.316C287.479 310.426 286.997 308.161 286.227 306.523C285.938 305.945 285.456 305.319 284.781 304.645C284.203 303.97 283.625 303.296 283.047 302.621C282.372 301.85 281.746 301.079 281.168 300.309C280.686 299.538 280.253 298.96 279.867 298.574C278.518 297.322 276.88 296.454 274.953 295.973C273.122 295.395 271.436 294.479 269.895 293.227C268.257 293.323 267.052 293.612 266.281 294.094C265.51 294.576 264.643 295.009 263.68 295.395ZM349.676 339.621C351.121 338.754 352.229 337.598 353 336.152C353.867 334.611 354.783 333.165 355.746 331.816C356.806 330.564 357.866 329.359 358.926 328.203C359.986 327.047 360.997 325.794 361.961 324.445C362.057 323.867 362.105 323.53 362.105 323.434C362.202 323.337 362.25 323.289 362.25 323.289C362.346 323.193 362.395 323.096 362.395 323C362.491 322.904 362.635 322.615 362.828 322.133C364.081 321.362 365.285 320.495 366.441 319.531C367.694 318.471 368.031 316.785 367.453 314.473C368.128 313.124 368.754 312.016 369.332 311.148C369.91 310.185 370.488 309.318 371.066 308.547C371.741 307.68 372.367 306.812 372.945 305.945C373.62 304.982 374.342 303.874 375.113 302.621C376.462 302.428 377.281 301.754 377.57 300.598C377.859 299.345 378.245 298.092 378.727 296.84C379.208 295.78 379.738 294.768 380.316 293.805C380.895 292.841 381.424 291.926 381.906 291.059C382.581 290.095 383.207 289.18 383.785 288.312C384.363 287.445 384.99 286.674 385.664 286C385.953 284.94 386.483 283.784 387.254 282.531C388.025 281.279 388.94 280.171 390 279.207C391.156 278.243 392.409 277.617 393.758 277.328C395.203 276.943 396.697 277.087 398.238 277.762C399.105 278.147 399.876 278.918 400.551 280.074C401.322 281.23 401.755 282.339 401.852 283.398C401.852 285.133 401.273 286.819 400.117 288.457C398.961 290.095 398.142 291.492 397.66 292.648C397.757 293.516 397.612 294.286 397.227 294.961C396.841 295.635 396.359 296.262 395.781 296.84C395.203 297.418 394.625 297.948 394.047 298.43C393.469 298.911 393.035 299.441 392.746 300.02C391.59 300.983 390.674 301.802 390 302.477C389.422 303.055 388.458 303.826 387.109 304.789C386.242 305.56 385.568 306.379 385.086 307.246C384.604 308.113 384.219 309.077 383.93 310.137C383.641 311.1 383.352 312.16 383.062 313.316C382.773 314.473 382.34 315.677 381.762 316.93C380.895 318.857 379.738 320.591 378.293 322.133C376.848 323.578 375.595 325.216 374.535 327.047C373.283 328.974 372.464 330.853 372.078 332.684C371.789 334.418 371.018 336.249 369.766 338.176C369.38 338.85 368.898 339.525 368.32 340.199C367.742 340.777 367.212 341.404 366.73 342.078C364.9 344.487 363.021 346.896 361.094 349.305C359.263 351.714 357.673 354.363 356.324 357.254C355.746 357.35 355.216 357.688 354.734 358.266C354.349 358.844 353.915 359.374 353.434 359.855C353.145 360.048 352.759 360.193 352.277 360.289C351.796 360.482 351.362 360.674 350.977 360.867C350.398 361.349 349.868 361.831 349.387 362.312C348.905 362.794 348.134 363.228 347.074 363.613C346.303 363.806 345.388 363.951 344.328 364.047C343.365 364.24 342.594 364.288 342.016 364.191C340.474 363.902 339.077 362.891 337.824 361.156C336.572 359.518 335.704 357.88 335.223 356.242C333.681 354.893 332.573 353.352 331.898 351.617C331.224 349.786 330.694 347.667 330.309 345.258C330.212 344.776 330.164 344.342 330.164 343.957C330.26 343.572 330.309 343.138 330.309 342.656C330.212 341.693 329.923 340.729 329.441 339.766C328.96 338.706 328.43 337.646 327.852 336.586C327.273 335.526 326.743 334.466 326.262 333.406C325.78 332.25 325.539 331.142 325.539 330.082C325.539 329.118 325.587 328.155 325.684 327.191C325.78 326.228 325.732 325.216 325.539 324.156C325.346 323.193 324.961 322.374 324.383 321.699C323.901 320.928 323.612 319.868 323.516 318.52C323.419 317.749 323.275 316.737 323.082 315.484C322.986 314.135 322.841 312.786 322.648 311.438C322.552 309.992 322.456 308.643 322.359 307.391C322.263 306.042 322.167 305.03 322.07 304.355C321.878 302.428 321.396 300.309 320.625 297.996C319.854 295.587 319.276 293.564 318.891 291.926C318.698 290.962 318.602 289.71 318.602 288.168C318.602 286.626 318.65 285.711 318.746 285.422C318.939 284.651 319.517 283.928 320.48 283.254C321.54 282.483 322.504 282.098 323.371 282.098C324.238 282.098 324.961 282.387 325.539 282.965C326.117 283.543 326.888 283.977 327.852 284.266C328.622 284.458 329.249 284.603 329.73 284.699C330.212 284.796 330.983 284.844 332.043 284.844C333.007 284.747 333.97 284.844 334.934 285.133C335.993 285.422 336.909 285.663 337.68 285.855C339.318 286.337 340.522 287.493 341.293 289.324C342.064 291.155 342.305 293.178 342.016 295.395C341.823 296.262 341.727 297.225 341.727 298.285C341.727 299.345 341.582 300.309 341.293 301.176C341.1 301.85 341.148 302.477 341.438 303.055C341.823 303.536 341.967 304.066 341.871 304.645C341.871 305.223 341.967 306.138 342.16 307.391C342.353 308.547 342.594 309.848 342.883 311.293C343.172 312.642 343.461 313.943 343.75 315.195C344.039 316.448 344.28 317.363 344.473 317.941C344.858 319.194 345.388 320.398 346.062 321.555C346.737 322.615 347.074 323.674 347.074 324.734C347.074 325.312 346.978 325.891 346.785 326.469C346.592 326.951 346.496 327.432 346.496 327.914C346.303 330.323 346.496 332.491 347.074 334.418C347.749 336.249 348.616 337.983 349.676 339.621ZM421.652 294.094C423.483 292.841 425.073 291.396 426.422 289.758C427.771 288.12 429.072 286.482 430.324 284.844C431.095 284.94 431.77 284.796 432.348 284.41C432.926 284.025 433.552 283.736 434.227 283.543C435.576 283.158 436.924 283.206 438.273 283.688C439.719 284.073 441.116 284.217 442.465 284.121C444.103 283.928 445.645 283.495 447.09 282.82C448.632 282.146 450.414 281.809 452.438 281.809C453.112 281.809 453.738 282.049 454.316 282.531C454.895 282.917 455.473 283.158 456.051 283.254C456.822 283.447 457.496 283.35 458.074 282.965C458.749 282.579 459.471 282.387 460.242 282.387C461.591 282.387 462.603 282.82 463.277 283.688C464.048 284.555 464.915 285.422 465.879 286.289C466.361 288.505 466.409 290.673 466.023 292.793C465.638 294.913 465.542 297.081 465.734 299.297C465.927 300.742 466.12 302.139 466.312 303.488C466.602 304.837 466.746 306.234 466.746 307.68C466.842 308.932 466.746 310.281 466.457 311.727C466.264 313.076 466.216 314.424 466.312 315.773C466.409 316.255 466.553 316.737 466.746 317.219C466.939 317.701 466.987 318.182 466.891 318.664C466.698 319.724 466.264 320.543 465.59 321.121C464.915 321.699 464.53 322.47 464.434 323.434C464.241 324.879 464.53 326.228 465.301 327.48C466.168 328.733 466.698 330.034 466.891 331.383C466.987 331.961 466.939 332.587 466.746 333.262C466.553 333.936 466.457 334.562 466.457 335.141C466.264 337.26 466.264 339.621 466.457 342.223C466.746 344.824 466.939 347.233 467.035 349.449C467.035 350.22 467.083 350.991 467.18 351.762C467.372 352.533 467.372 353.159 467.18 353.641C467.083 354.122 466.842 354.508 466.457 354.797C466.168 355.086 465.927 355.423 465.734 355.809C465.638 356.29 465.638 356.965 465.734 357.832C465.927 358.699 466.023 359.518 466.023 360.289C466.023 360.964 465.975 361.59 465.879 362.168C465.783 362.842 465.734 363.421 465.734 363.902C465.831 364.191 465.927 364.48 466.023 364.77C466.216 365.155 466.264 365.492 466.168 365.781C465.975 366.648 465.301 367.564 464.145 368.527C463.085 369.587 461.977 370.069 460.82 369.973C460.242 369.876 459.375 369.395 458.219 368.527C457.159 367.757 456.388 367.13 455.906 366.648C455.039 365.589 454.509 364.24 454.316 362.602C454.124 360.964 453.69 359.47 453.016 358.121C452.727 357.639 452.293 357.206 451.715 356.82C451.233 356.339 450.799 355.809 450.414 355.23C449.836 354.171 449.451 353.111 449.258 352.051C449.065 350.895 448.921 349.786 448.824 348.727C448.824 347.57 448.776 346.462 448.68 345.402C448.583 344.246 448.342 343.09 447.957 341.934C447.764 341.548 447.475 341.211 447.09 340.922C446.704 340.633 446.367 340.247 446.078 339.766C445.5 338.802 445.115 337.983 444.922 337.309C444.729 336.634 444.103 336.104 443.043 335.719C439.671 335.719 436.25 335.622 432.781 335.43C429.409 335.237 426.085 335.333 422.809 335.719C422.038 335.815 421.363 336.008 420.785 336.297C420.207 336.49 419.533 336.634 418.762 336.73C418.376 336.73 417.991 336.682 417.605 336.586C417.22 336.49 416.883 336.441 416.594 336.441C415.245 336.634 413.944 337.26 412.691 338.32C411.439 339.284 410.475 340.247 409.801 341.211C409.415 341.789 409.174 342.512 409.078 343.379C409.078 344.15 408.934 344.921 408.645 345.691C408.355 346.462 407.874 347.185 407.199 347.859C406.525 348.438 406.284 349.208 406.477 350.172C405.417 350.943 404.501 351.906 403.73 353.062C403.056 354.219 402.382 355.423 401.707 356.676C401.033 357.832 400.262 358.94 399.395 360C398.624 361.06 397.66 361.831 396.504 362.312C396.022 362.505 395.54 362.746 395.059 363.035C394.673 363.324 394.24 363.469 393.758 363.469C393.276 363.372 392.987 363.228 392.891 363.035C392.891 362.842 392.602 362.553 392.023 362.168C391.445 361.783 390.771 361.349 390 360.867C389.133 360.385 388.314 359.855 387.543 359.277C386.772 358.699 386.098 358.121 385.52 357.543C384.845 356.868 384.363 356.242 384.074 355.664C383.303 354.026 383.159 352.87 383.641 352.195C384.122 351.424 384.749 350.509 385.52 349.449C386.579 347.908 387.784 346.173 389.133 344.246C390.482 342.319 391.686 340.488 392.746 338.754C393.324 337.79 393.806 336.875 394.191 336.008C394.673 335.141 395.251 334.322 395.926 333.551C396.697 332.491 397.66 331.624 398.816 330.949C400.069 330.275 400.936 329.408 401.418 328.348C401.611 327.866 401.707 327.384 401.707 326.902C401.707 326.324 401.803 325.746 401.996 325.168C402.767 323.241 403.971 321.507 405.609 319.965C407.247 318.423 408.5 316.689 409.367 314.762C409.56 314.28 409.656 313.846 409.656 313.461C409.753 312.979 409.897 312.497 410.09 312.016C411.632 308.451 413.51 305.271 415.727 302.477C418.039 299.682 420.014 296.888 421.652 294.094ZM441.887 293.66C440.73 294.527 439.719 295.539 438.852 296.695C438.081 297.755 437.021 298.574 435.672 299.152C435.286 300.02 434.805 300.839 434.227 301.609C433.745 302.38 433.07 303.007 432.203 303.488C431.914 305.03 431.336 306.379 430.469 307.535C429.602 308.595 428.783 309.655 428.012 310.715C427.626 311.1 427.289 311.534 427 312.016C426.711 312.401 426.374 312.835 425.988 313.316C425.507 313.798 425.025 314.184 424.543 314.473C424.061 314.665 423.628 314.954 423.242 315.34C422.664 316.111 422.038 317.171 421.363 318.52C420.689 319.868 420.062 320.977 419.484 321.844C419.003 322.326 418.521 322.807 418.039 323.289C417.557 323.771 417.413 324.397 417.605 325.168C417.895 325.939 418.473 326.469 419.34 326.758C420.207 326.951 421.171 327.095 422.23 327.191C423.387 327.191 424.495 327.143 425.555 327.047C426.615 326.951 427.482 326.902 428.156 326.902C429.505 326.902 430.854 326.951 432.203 327.047C433.648 327.047 434.997 326.999 436.25 326.902C437.599 326.806 438.755 326.565 439.719 326.18C440.779 325.794 441.598 325.216 442.176 324.445C443.139 321.362 443.38 318.279 442.898 315.195C442.417 312.016 441.983 308.884 441.598 305.801C441.405 304.934 441.26 303.97 441.164 302.91C441.068 301.85 441.068 300.887 441.164 300.02C441.26 299.056 441.549 298.141 442.031 297.273C442.609 296.31 442.706 295.202 442.32 293.949L441.887 293.66ZM483.945 357.398C481.922 358.073 480.139 357.832 478.598 356.676C477.056 355.423 476.092 353.978 475.707 352.34C475.514 351.569 475.514 350.413 475.707 348.871C475.9 347.233 476.189 345.932 476.574 344.969C476.96 343.909 477.779 342.656 479.031 341.211C480.284 339.766 481.247 338.128 481.922 336.297C482.596 334.562 483.126 332.924 483.512 331.383C483.993 329.745 484.668 328.444 485.535 327.48C486.21 326.806 486.932 326.228 487.703 325.746C488.474 325.168 488.908 324.445 489.004 323.578C489.004 322.807 488.763 322.133 488.281 321.555C487.896 320.977 487.751 320.206 487.848 319.242C487.848 318.375 488.089 317.267 488.57 315.918C489.148 314.569 489.678 313.365 490.16 312.305C491.22 309.992 492.039 307.632 492.617 305.223C492.81 304.548 492.954 303.777 493.051 302.91C493.243 301.947 493.436 301.224 493.629 300.742C493.918 300.357 494.207 299.73 494.496 298.863C494.882 297.996 495.315 297.129 495.797 296.262C496.279 295.395 496.809 294.624 497.387 293.949C497.965 293.178 498.591 292.648 499.266 292.359C500.036 292.07 500.855 291.878 501.723 291.781C502.686 291.589 503.553 291.299 504.324 290.914C505.191 290.625 505.721 290.288 505.914 289.902C506.107 289.517 506.589 289.132 507.359 288.746C507.938 288.553 508.516 288.457 509.094 288.457C509.768 288.457 510.443 288.361 511.117 288.168C511.888 287.879 512.707 287.445 513.574 286.867C514.441 286.289 515.453 286.337 516.609 287.012C517.091 287.301 517.573 288.168 518.055 289.613C518.536 291.059 519.018 292.408 519.5 293.66C519.693 294.335 519.934 295.154 520.223 296.117C520.608 297.081 520.945 298.092 521.234 299.152C521.523 300.116 521.812 301.031 522.102 301.898C522.391 302.669 522.632 303.247 522.824 303.633C523.306 304.596 523.643 305.608 523.836 306.668C524.029 307.728 524.318 308.691 524.703 309.559C525.185 310.522 525.667 311.438 526.148 312.305C526.63 313.172 527.112 314.135 527.594 315.195C528.076 316.255 528.509 317.267 528.895 318.23C529.28 319.194 529.762 320.206 530.34 321.266C530.725 322.036 531.303 322.759 532.074 323.434C532.845 324.012 533.327 324.686 533.52 325.457C533.809 326.228 533.809 327.095 533.52 328.059C533.23 328.926 533.182 329.745 533.375 330.516C533.664 331.576 534.29 332.443 535.254 333.117C536.217 333.792 537.085 334.514 537.855 335.285C538.337 335.863 538.626 336.441 538.723 337.02C538.819 337.598 539.253 337.983 540.023 338.176C540.216 336.345 540.409 334.755 540.602 333.406C540.891 332.057 541.18 330.757 541.469 329.504C541.758 328.155 542.047 326.806 542.336 325.457C542.625 324.012 542.866 322.422 543.059 320.688C544.022 319.435 544.889 318.279 545.66 317.219C546.431 316.062 546.768 314.569 546.672 312.738C546.576 312.16 546.383 311.582 546.094 311.004C545.901 310.426 545.853 309.799 545.949 309.125C546.046 308.161 546.238 307.294 546.527 306.523C546.816 305.753 547.202 304.789 547.684 303.633C547.973 302.862 548.214 302.091 548.406 301.32C548.599 300.453 548.84 299.538 549.129 298.574C549.418 297.803 549.659 297.177 549.852 296.695C550.141 296.214 550.43 295.78 550.719 295.395C551.008 294.913 551.249 294.431 551.441 293.949C551.634 293.371 551.827 292.552 552.02 291.492C552.309 289.854 552.453 288.457 552.453 287.301C552.453 286.145 552.694 284.988 553.176 283.832C553.947 282.098 555.151 280.652 556.789 279.496C558.523 278.243 560.161 277.232 561.703 276.461C564.401 276.557 566.617 277.28 568.352 278.629C570.086 279.882 571.194 281.423 571.676 283.254C572.35 284.988 572.302 286.434 571.531 287.59C570.76 288.65 569.99 289.854 569.219 291.203C568.737 292.07 568.352 292.889 568.062 293.66C567.87 294.431 567.677 295.202 567.484 295.973C567.388 296.647 567.243 297.37 567.051 298.141C566.954 298.911 566.714 299.779 566.328 300.742C566.039 301.706 565.605 302.525 565.027 303.199C564.449 303.777 564.064 304.404 563.871 305.078C564.16 306.427 564.257 307.535 564.16 308.402C564.16 309.27 564.016 310.089 563.727 310.859C563.534 311.534 563.293 312.257 563.004 313.027C562.811 313.702 562.618 314.473 562.426 315.34C562.233 316.014 562.137 316.689 562.137 317.363C562.137 318.038 562.04 318.664 561.848 319.242C561.559 320.398 561.173 321.458 560.691 322.422C560.21 323.385 559.728 324.301 559.246 325.168C558.572 326.613 557.801 327.962 556.934 329.215C556.163 330.467 555.681 332.154 555.488 334.273C555.392 335.622 555.296 336.827 555.199 337.887C555.199 338.85 555.151 339.766 555.055 340.633C555.055 341.5 554.91 342.415 554.621 343.379C554.428 344.342 554.139 345.499 553.754 346.848C553.561 347.618 553.272 348.389 552.887 349.16C552.598 349.835 552.357 350.557 552.164 351.328C551.586 353.833 550.767 355.76 549.707 357.109C548.647 358.362 547.057 359.663 544.938 361.012C543.781 361.301 542.625 361.59 541.469 361.879C540.312 362.168 539.156 362.312 538 362.312C536.94 362.312 535.928 362.12 534.965 361.734C534.001 361.445 533.182 360.771 532.508 359.711C532.026 358.94 531.496 357.832 530.918 356.387C530.436 354.845 529.858 353.352 529.184 351.906C528.895 351.232 528.557 350.605 528.172 350.027C527.883 349.353 527.642 348.678 527.449 348.004C526.967 346.944 526.63 346.029 526.438 345.258C526.341 344.487 526.052 343.427 525.57 342.078C524.896 339.958 523.836 338.368 522.391 337.309C520.945 336.249 519.693 335.092 518.633 333.84C518.536 332.876 518.392 332.009 518.199 331.238C518.007 330.467 517.573 329.841 516.898 329.359C516.706 329.167 516.465 329.07 516.176 329.07C515.887 328.974 515.646 328.781 515.453 328.492C515.164 328.107 514.971 327.673 514.875 327.191C514.779 326.613 514.586 326.18 514.297 325.891C514.104 325.698 513.815 325.264 513.43 324.59C513.044 323.915 512.659 323.241 512.273 322.566C511.984 321.892 511.647 321.314 511.262 320.832C510.876 320.254 510.587 320.013 510.395 320.109C509.913 320.109 509.431 320.495 508.949 321.266C508.564 322.036 508.13 322.904 507.648 323.867C507.263 324.831 506.878 325.794 506.492 326.758C506.107 327.625 505.77 328.251 505.48 328.637C504.999 329.311 504.613 330.323 504.324 331.672C504.132 332.924 503.842 333.936 503.457 334.707C502.783 335.863 502.156 337.02 501.578 338.176C501.096 339.332 501.241 340.585 502.012 341.934C502.012 342.608 501.819 343.186 501.434 343.668C501.145 344.053 501.096 344.728 501.289 345.691C500.711 346.751 500.133 347.956 499.555 349.305C499.073 350.654 498.543 352.147 497.965 353.785C497.676 354.749 497.435 355.76 497.242 356.82C497.049 357.784 496.809 358.747 496.52 359.711C496.23 360.578 495.797 361.349 495.219 362.023C494.737 362.698 494.062 363.083 493.195 363.18C492.039 363.372 491.076 363.228 490.305 362.746C489.534 362.264 488.811 361.686 488.137 361.012C487.462 360.434 486.788 359.807 486.113 359.133C485.439 358.362 484.716 357.784 483.945 357.398ZM651.602 284.266C651.794 285.326 651.553 286.241 650.879 287.012C650.301 287.686 649.53 288.12 648.566 288.312C648.759 288.987 649.096 289.421 649.578 289.613C650.06 289.71 650.397 289.999 650.59 290.48C649.819 292.022 648.518 293.178 646.688 293.949C644.953 294.624 643.122 295.202 641.195 295.684C640.039 295.876 638.786 295.973 637.438 295.973C636.185 295.973 634.98 295.876 633.824 295.684C632.186 295.395 630.645 294.865 629.199 294.094C627.754 293.227 626.357 292.889 625.008 293.082C624.622 293.178 624.189 293.419 623.707 293.805C623.322 294.19 622.888 294.479 622.406 294.672C621.443 295.346 620.238 295.924 618.793 296.406C617.444 296.792 616.384 297.225 615.613 297.707C613.397 298.96 611.326 300.501 609.398 302.332C607.471 304.163 605.448 305.753 603.328 307.102C602.557 308.643 601.786 310.185 601.016 311.727C600.341 313.172 599.618 314.858 598.848 316.785C598.462 317.652 598.029 318.568 597.547 319.531C597.161 320.398 596.872 321.266 596.68 322.133C596.487 323 596.294 324.06 596.102 325.312C596.005 326.565 595.812 327.721 595.523 328.781C595.331 329.552 594.993 330.227 594.512 330.805C594.126 331.383 593.982 332.105 594.078 332.973C594.271 333.743 594.656 334.37 595.234 334.852C595.909 335.333 596.342 335.911 596.535 336.586C596.728 336.971 596.728 337.405 596.535 337.887C596.439 338.272 596.439 338.706 596.535 339.188C596.921 340.826 597.74 342.319 598.992 343.668C600.341 345.017 601.449 346.318 602.316 347.57C604.34 347.763 606.122 348.1 607.664 348.582C609.302 348.967 610.988 349.305 612.723 349.594C614.361 348.823 615.999 348.197 617.637 347.715C619.371 347.233 621.202 346.655 623.129 345.98C624.574 345.499 625.971 344.776 627.32 343.812C628.766 342.753 630.259 342.126 631.801 341.934C632.09 341.934 632.427 342.03 632.812 342.223C633.198 342.319 633.535 342.319 633.824 342.223C634.595 342.126 635.27 341.837 635.848 341.355C636.426 340.874 637.004 340.44 637.582 340.055C638.257 339.573 638.931 339.188 639.605 338.898C640.376 338.609 641.243 338.561 642.207 338.754C643.171 340.392 643.315 341.693 642.641 342.656C642.062 343.62 641.195 344.535 640.039 345.402C638.883 346.173 637.727 347.04 636.57 348.004C635.51 348.967 634.98 350.22 634.98 351.762C634.113 352.725 633.053 353.737 631.801 354.797C630.548 355.857 629.103 356.724 627.465 357.398C626.79 357.591 626.068 357.784 625.297 357.977C624.622 358.073 623.996 358.217 623.418 358.41C621.395 359.181 619.516 360 617.781 360.867C616.047 361.734 613.879 362.12 611.277 362.023C609.736 362.023 608.339 361.879 607.086 361.59C606.026 361.397 605.014 361.06 604.051 360.578C603.184 360.096 602.22 359.759 601.16 359.566C599.811 359.374 598.462 359.374 597.113 359.566C595.764 359.759 594.512 359.759 593.355 359.566C592.199 359.374 590.995 358.94 589.742 358.266C588.49 357.495 587.285 356.724 586.129 355.953C584.876 355.279 583.672 354.652 582.516 354.074C581.456 353.4 580.396 352.773 579.336 352.195C578.083 351.328 577.023 350.268 576.156 349.016C575.385 347.667 574.422 346.462 573.266 345.402C572.784 343.475 572.591 341.596 572.688 339.766C572.784 337.839 572.784 335.911 572.688 333.984C572.591 332.25 572.254 330.467 571.676 328.637C571.194 326.806 571.049 325.168 571.242 323.723C571.435 323.048 571.676 322.326 571.965 321.555C572.254 320.784 572.447 319.965 572.543 319.098C572.736 317.749 572.928 316.544 573.121 315.484C573.41 314.328 573.844 313.22 574.422 312.16C574.807 311.486 575.241 310.859 575.723 310.281C576.301 309.703 576.831 309.125 577.312 308.547C577.891 307.969 578.372 307.342 578.758 306.668C579.143 305.993 579.384 305.126 579.48 304.066C580.059 303.296 580.733 302.717 581.504 302.332C582.371 301.947 583.046 301.368 583.527 300.598C583.816 300.116 583.961 299.634 583.961 299.152C583.961 298.671 584.154 298.189 584.539 297.707C585.021 297.129 585.743 296.503 586.707 295.828C587.671 295.154 588.49 294.576 589.164 294.094C591.091 293.034 593.115 292.07 595.234 291.203C597.354 290.24 599.329 289.083 601.16 287.734C602.316 287.734 603.424 287.59 604.484 287.301C605.641 286.915 606.701 286.53 607.664 286.145C608.724 285.663 609.784 285.229 610.844 284.844C611.904 284.362 613.012 284.025 614.168 283.832C615.228 283.736 616.384 283.736 617.637 283.832C618.889 283.832 620.094 283.784 621.25 283.688C622.984 283.591 624.719 283.543 626.453 283.543C628.284 283.447 629.922 283.495 631.367 283.688C632.042 283.784 632.716 284.025 633.391 284.41C634.065 284.699 634.788 284.844 635.559 284.844C636.233 284.844 636.908 284.699 637.582 284.41C638.353 284.121 639.076 283.928 639.75 283.832C641.677 283.639 643.652 283.639 645.676 283.832C647.699 283.928 649.674 284.073 651.602 284.266ZM724.301 292.504C721.699 293.757 719.098 294.383 716.496 294.383C713.895 294.383 711.004 294.286 707.824 294.094C706.957 294.094 705.993 294.142 704.934 294.238C703.97 294.335 703.055 294.431 702.188 294.527C697.659 295.009 693.853 296.743 690.77 299.73C687.686 302.621 685.422 306.283 683.977 310.715C683.495 312.353 683.109 313.846 682.82 315.195C682.531 316.544 683.158 317.315 684.699 317.508C685.663 317.701 686.626 317.701 687.59 317.508C688.553 317.315 689.517 317.074 690.48 316.785C691.54 316.4 692.552 316.062 693.516 315.773C694.479 315.484 695.443 315.34 696.406 315.34C696.792 315.34 697.129 315.436 697.418 315.629C697.803 315.822 698.189 315.918 698.574 315.918C700.212 316.111 701.947 316.014 703.777 315.629C705.608 315.147 707.294 315.099 708.836 315.484C709.125 315.581 709.366 315.773 709.559 316.062C709.848 316.255 710.233 316.448 710.715 316.641C711.967 317.122 713.461 317.46 715.195 317.652C716.93 317.749 718.327 318.038 719.387 318.52C719.868 318.712 720.35 319.098 720.832 319.676C721.314 320.158 721.555 320.495 721.555 320.688C721.555 321.747 720.928 322.422 719.676 322.711C718.423 323 717.363 323.193 716.496 323.289C715.725 323.385 714.954 323.385 714.184 323.289C713.413 323.193 712.642 323.241 711.871 323.434C710.522 323.626 709.221 323.915 707.969 324.301C706.716 324.59 705.367 324.975 703.922 325.457C702.284 326.035 700.742 326.758 699.297 327.625C697.852 328.396 696.262 328.878 694.527 329.07C693.275 329.263 692.07 329.263 690.914 329.07C689.758 328.878 688.505 328.878 687.156 329.07C686.674 329.167 686.193 329.311 685.711 329.504C685.326 329.697 684.892 329.841 684.41 329.938C683.543 330.13 682.868 330.275 682.387 330.371C682.001 330.371 681.664 330.467 681.375 330.66C681.182 330.853 680.941 331.142 680.652 331.527C680.46 331.913 680.122 332.491 679.641 333.262C678.87 334.996 678.388 336.875 678.195 338.898C678.003 340.826 677.81 342.897 677.617 345.113C678.677 346.173 679.689 347.04 680.652 347.715C681.616 348.293 683.109 348.582 685.133 348.582C686.193 348.582 687.012 348.486 687.59 348.293C688.264 348.004 689.132 347.811 690.191 347.715C691.251 347.715 692.311 347.811 693.371 348.004C694.431 348.1 695.635 348.1 696.984 348.004C699.779 347.811 702.139 347.474 704.066 346.992C705.993 346.414 708.354 346.221 711.148 346.414C711.727 346.414 712.738 346.462 714.184 346.559C715.725 346.655 717.267 346.799 718.809 346.992C720.35 347.089 721.699 347.281 722.855 347.57C724.108 347.859 724.734 348.245 724.734 348.727C724.734 349.305 724.349 349.931 723.578 350.605C722.904 351.184 722.085 351.762 721.121 352.34C720.254 352.822 719.339 353.255 718.375 353.641C717.508 353.93 716.93 354.122 716.641 354.219C715.003 354.701 713.413 354.845 711.871 354.652C710.329 354.363 708.643 354.315 706.812 354.508C705.464 354.701 704.259 354.99 703.199 355.375C702.139 355.76 701.079 356.194 700.02 356.676C698.96 357.061 697.852 357.495 696.695 357.977C695.635 358.362 694.383 358.603 692.938 358.699C691.01 358.892 689.372 359.133 688.023 359.422C686.674 359.615 685.085 359.904 683.254 360.289C682.483 360.482 681.76 360.674 681.086 360.867C680.411 361.156 679.689 361.397 678.918 361.59C676.124 362.168 673.089 362.264 669.812 361.879C666.633 361.59 663.164 361.638 659.406 362.023C656.997 362.312 654.829 362.65 652.902 363.035C651.072 363.517 649.193 363.661 647.266 363.469C646.591 363.372 645.965 363.276 645.387 363.18C644.712 363.18 644.134 362.939 643.652 362.457C643.845 361.686 644.279 361.012 644.953 360.434C645.628 359.855 646.302 359.326 646.977 358.844C647.651 358.266 648.277 357.688 648.855 357.109C649.53 356.435 650.156 355.809 650.734 355.23C651.312 354.46 651.794 353.544 652.18 352.484C652.565 351.328 652.902 350.172 653.191 349.016C653.577 347.859 653.962 346.799 654.348 345.836C654.829 344.776 655.408 343.861 656.082 343.09C655.311 341.355 655.311 339.38 656.082 337.164C656.949 334.948 657.72 332.635 658.395 330.227C658.587 329.648 658.684 329.07 658.684 328.492C658.684 327.914 658.78 327.384 658.973 326.902C659.165 325.939 659.599 325.12 660.273 324.445C660.948 323.674 661.382 322.904 661.574 322.133C661.671 321.651 661.671 321.169 661.574 320.688C661.574 320.206 661.622 319.724 661.719 319.242C661.911 317.797 662.249 316.448 662.73 315.195C663.309 313.846 663.694 312.642 663.887 311.582C664.079 310.811 664.079 310.04 663.887 309.27C663.79 308.402 663.79 307.583 663.887 306.812C664.079 304.885 664.465 303.055 665.043 301.32C665.717 299.586 666.103 298.044 666.199 296.695C666.296 295.635 666.151 294.479 665.766 293.227C665.38 291.974 664.995 291.01 664.609 290.336C664.32 289.854 663.887 289.372 663.309 288.891C662.73 288.312 662.152 287.783 661.574 287.301C660.996 286.819 660.466 286.385 659.984 286C659.599 285.518 659.406 285.085 659.406 284.699C659.503 283.639 659.936 283.109 660.707 283.109C661.478 283.013 662.201 282.676 662.875 282.098C666.344 282.194 669.62 282.579 672.703 283.254C675.883 283.928 679.159 284.362 682.531 284.555C683.784 284.747 685.085 284.747 686.434 284.555C687.783 284.266 689.083 284.073 690.336 283.977C692.359 283.88 694.624 284.169 697.129 284.844C699.73 285.518 702.284 285.759 704.789 285.566C708.161 285.374 711.341 285.277 714.328 285.277C717.315 285.277 720.447 285.181 723.723 284.988C724.301 285.47 725.168 285.711 726.324 285.711C727.48 285.615 728.637 285.518 729.793 285.422C731.046 285.229 732.154 285.181 733.117 285.277C734.177 285.374 734.9 285.807 735.285 286.578C735.863 287.927 735.767 289.083 734.996 290.047C734.225 291.01 733.165 291.637 731.816 291.926C731.431 291.926 730.901 291.974 730.227 292.07C729.552 292.167 728.829 292.263 728.059 292.359C727.288 292.456 726.517 292.504 725.746 292.504C725.072 292.504 724.59 292.504 724.301 292.504ZM733.84 351.328C734.514 349.786 735.092 348.341 735.574 346.992C736.056 345.547 736.682 343.957 737.453 342.223C737.839 341.259 738.128 340.247 738.32 339.188C738.513 338.128 738.85 337.068 739.332 336.008C739.814 335.141 740.392 334.273 741.066 333.406C741.837 332.539 742.415 331.576 742.801 330.516C743.379 328.878 743.427 327.047 742.945 325.023C742.464 322.904 742.512 320.784 743.09 318.664C743.572 316.641 744.102 314.665 744.68 312.738C745.354 310.715 745.788 308.932 745.98 307.391C746.173 306.331 746.27 305.271 746.27 304.211C746.27 303.055 746.366 301.898 746.559 300.742C746.751 299.49 747.137 298.285 747.715 297.129C748.293 295.876 748.63 294.72 748.727 293.66C748.919 291.444 748.389 289.469 747.137 287.734C745.98 285.904 744.776 284.362 743.523 283.109C743.62 282.531 743.909 282.098 744.391 281.809C744.969 281.423 745.402 281.279 745.691 281.375C746.848 281.568 748.148 281.953 749.594 282.531C751.039 283.109 752.436 283.495 753.785 283.688C754.941 283.88 756.194 283.88 757.543 283.688C758.988 283.495 760.482 283.495 762.023 283.688C763.661 283.88 765.637 284.073 767.949 284.266C770.262 284.458 772.526 284.555 774.742 284.555C777.247 284.651 779.656 284.603 781.969 284.41C784.281 284.217 786.546 284.266 788.762 284.555C790.4 284.747 791.893 285.181 793.242 285.855C794.591 286.53 796.085 286.771 797.723 286.578C799.072 288.12 800.613 289.324 802.348 290.191C804.178 290.962 805.816 291.974 807.262 293.227C809.285 294.865 811.02 296.84 812.465 299.152C813.91 301.368 815.645 303.296 817.668 304.934C817.668 305.704 817.861 306.427 818.246 307.102C818.632 307.776 818.872 308.547 818.969 309.414C818.969 309.896 818.872 310.474 818.68 311.148C818.487 311.727 818.391 312.305 818.391 312.883C818.487 313.75 818.776 314.473 819.258 315.051C819.74 315.533 819.932 316.303 819.836 317.363C819.74 320.736 818.872 324.06 817.234 327.336C815.596 330.612 813.958 333.503 812.32 336.008C811.26 336.104 810.49 336.538 810.008 337.309C809.622 338.079 809.092 338.947 808.418 339.91C807.454 341.259 806.298 342.415 804.949 343.379C803.697 344.246 802.54 345.354 801.48 346.703C799.361 347.474 797.385 348.486 795.555 349.738C793.82 350.991 791.845 352.147 789.629 353.207C788.858 353.592 788.039 353.978 787.172 354.363C786.401 354.652 785.63 354.99 784.859 355.375C783.896 355.664 782.98 356.001 782.113 356.387C781.246 356.772 780.427 357.061 779.656 357.254C779.078 357.447 778.452 357.495 777.777 357.398C777.199 357.302 776.621 357.35 776.043 357.543C774.79 357.832 773.586 358.362 772.43 359.133C771.273 359.807 770.117 360.241 768.961 360.434C767.612 360.626 766.263 360.53 764.914 360.145C763.565 359.759 762.264 359.422 761.012 359.133C759.374 359.326 757.736 359.422 756.098 359.422C754.46 359.326 752.773 359.229 751.039 359.133C749.305 359.036 747.474 359.036 745.547 359.133C743.62 359.229 741.548 359.47 739.332 359.855C738.754 359.952 738.128 360.145 737.453 360.434C736.875 360.723 736.297 360.915 735.719 361.012C734.659 361.204 733.454 361.301 732.105 361.301C730.853 361.301 729.648 361.301 728.492 361.301C728.01 361.301 727.432 361.253 726.758 361.156C726.083 361.156 725.457 361.108 724.879 361.012C724.204 360.915 723.626 360.723 723.145 360.434C722.663 360.241 722.374 359.952 722.277 359.566C722.181 358.988 722.374 358.507 722.855 358.121C723.241 357.639 723.771 357.254 724.445 356.965C725.023 356.579 725.65 356.29 726.324 356.098C726.999 355.809 727.529 355.568 727.914 355.375C729.07 354.701 730.082 353.978 730.949 353.207C731.72 352.34 732.684 351.714 733.84 351.328ZM772.285 295.395C771.514 296.165 770.936 297.081 770.551 298.141C770.262 299.201 769.973 300.357 769.684 301.609C769.491 302.766 769.298 303.97 769.105 305.223C768.913 306.475 768.624 307.68 768.238 308.836C767.853 309.607 767.467 310.378 767.082 311.148C766.697 311.823 766.408 312.546 766.215 313.316C765.733 315.147 765.444 316.93 765.348 318.664C765.251 320.398 764.962 322.229 764.48 324.156C764.288 325.216 763.902 326.276 763.324 327.336C762.842 328.299 762.505 329.311 762.312 330.371C762.12 331.431 762.12 332.443 762.312 333.406C762.505 334.37 762.505 335.382 762.312 336.441C762.12 337.212 761.831 337.935 761.445 338.609C761.156 339.284 760.915 340.007 760.723 340.777C760.241 343.379 760.723 345.306 762.168 346.559C763.613 347.715 765.348 348.534 767.371 349.016C770.84 349.786 774.02 349.594 776.91 348.438C779.897 347.185 782.258 345.788 783.992 344.246C785.245 342.801 786.546 341.259 787.895 339.621C789.243 337.887 790.303 336.008 791.074 333.984C791.363 333.214 791.652 332.202 791.941 330.949C792.23 329.6 792.568 328.299 792.953 327.047C793.242 325.987 793.579 325.023 793.965 324.156C794.447 323.193 794.832 322.229 795.121 321.266C796.181 318.76 796.566 316.111 796.277 313.316C796.085 310.426 795.603 308.161 794.832 306.523C794.543 305.945 794.061 305.319 793.387 304.645C792.809 303.97 792.23 303.296 791.652 302.621C790.978 301.85 790.352 301.079 789.773 300.309C789.292 299.538 788.858 298.96 788.473 298.574C787.124 297.322 785.486 296.454 783.559 295.973C781.728 295.395 780.042 294.479 778.5 293.227C776.862 293.323 775.658 293.612 774.887 294.094C774.116 294.576 773.249 295.009 772.285 295.395ZM911.324 360.578C909.204 360 906.988 359.759 904.676 359.855C902.363 359.952 900.099 359.904 897.883 359.711C896.823 359.518 895.715 359.229 894.559 358.844C893.499 358.458 892.391 358.169 891.234 357.977C886.609 357.109 882.562 356.917 879.094 357.398C875.721 357.88 872.204 358.699 868.543 359.855C867.772 360.145 867.001 360.434 866.23 360.723C865.363 361.108 864.496 361.445 863.629 361.734C862.762 362.023 861.895 362.168 861.027 362.168C860.064 362.264 859.148 362.072 858.281 361.59C858.57 360.337 859.148 359.277 860.016 358.41C860.786 357.543 861.702 356.724 862.762 355.953C863.725 355.086 864.689 354.171 865.652 353.207C866.52 352.243 867.146 351.087 867.531 349.738C867.82 348.678 867.917 347.667 867.82 346.703C867.724 345.643 867.772 344.535 867.965 343.379C868.158 341.645 868.543 339.717 869.121 337.598C869.796 335.382 870.47 333.31 871.145 331.383C871.819 329.359 872.445 327.384 873.023 325.457C873.602 323.434 874.18 321.555 874.758 319.82C875.143 318.857 875.77 317.941 876.637 317.074C877.6 316.111 878.178 314.906 878.371 313.461C878.467 312.69 878.371 311.967 878.082 311.293C877.889 310.522 877.841 309.896 877.938 309.414C878.034 308.74 878.275 308.113 878.66 307.535C879.046 306.957 879.335 306.331 879.527 305.656C879.72 305.174 879.865 304.645 879.961 304.066C880.057 303.488 880.202 302.958 880.395 302.477C880.876 300.742 881.358 298.815 881.84 296.695C882.322 294.479 882.803 292.456 883.285 290.625C883.767 288.987 884.393 287.493 885.164 286.145C886.031 284.796 886.609 283.398 886.898 281.953C886.898 281.279 886.658 280.845 886.176 280.652C885.79 280.363 885.501 279.882 885.309 279.207C885.79 278.147 885.983 276.75 885.887 275.016C885.79 273.185 885.79 271.547 885.887 270.102C886.079 268.367 886.272 266.874 886.465 265.621C886.754 264.272 886.561 262.875 885.887 261.43C885.405 260.37 884.779 259.406 884.008 258.539C883.237 257.672 882.996 256.467 883.285 254.926C884.441 254.637 885.549 254.444 886.609 254.348C887.766 254.155 889.018 254.107 890.367 254.203C891.042 254.299 891.668 254.492 892.246 254.781C892.824 255.07 893.499 255.311 894.27 255.504C896.486 255.793 898.654 255.841 900.773 255.648C902.99 255.359 905.109 255.215 907.133 255.215C909.156 255.215 910.65 255.263 911.613 255.359C912.577 255.456 913.926 255.408 915.66 255.215C917.876 255.022 920.044 254.589 922.164 253.914C924.284 253.143 926.355 252.613 928.379 252.324C929.342 252.132 930.499 252.132 931.848 252.324C933.197 252.517 934.305 252.999 935.172 253.77C935.365 255.215 934.979 256.13 934.016 256.516C933.148 256.901 932.329 257.286 931.559 257.672C930.017 258.443 928.812 259.358 927.945 260.418C927.078 261.478 926.115 262.682 925.055 264.031C924.38 264.898 923.754 265.621 923.176 266.199C922.694 266.777 922.212 267.596 921.73 268.656C921.538 269.138 921.393 269.764 921.297 270.535C921.297 271.21 921.152 271.836 920.863 272.414C920.092 274.534 919.033 276.654 917.684 278.773C916.431 280.893 915.564 282.868 915.082 284.699C914.889 285.663 914.745 286.578 914.648 287.445C914.648 288.312 914.552 289.228 914.359 290.191C913.974 291.444 913.444 292.841 912.77 294.383C912.095 295.828 911.469 297.322 910.891 298.863C910.12 300.79 909.253 302.958 908.289 305.367C907.422 307.68 906.651 309.944 905.977 312.16C905.591 313.605 905.254 315.099 904.965 316.641C904.772 318.086 904.531 319.579 904.242 321.121C904.049 322.566 903.905 324.108 903.809 325.746C903.712 327.384 903.423 328.829 902.941 330.082C902.556 331.046 901.882 331.865 900.918 332.539C900.051 333.214 899.376 334.081 898.895 335.141C899.087 335.526 899.328 335.815 899.617 336.008C900.003 336.201 900.147 336.586 900.051 337.164C899.762 337.742 899.473 338.417 899.184 339.188C898.895 339.862 898.798 340.585 898.895 341.355C899.087 342.319 899.521 343.234 900.195 344.102C900.966 344.872 901.448 345.643 901.641 346.414C901.833 346.992 901.882 347.522 901.785 348.004C901.689 348.486 901.737 348.967 901.93 349.449C902.219 350.509 902.749 351.521 903.52 352.484C904.387 353.448 905.206 354.171 905.977 354.652C907.133 355.423 908.337 356.001 909.59 356.387C910.939 356.772 911.902 357.639 912.48 358.988L911.324 360.578ZM1006.71 284.266C1006.91 285.326 1006.67 286.241 1005.99 287.012C1005.41 287.686 1004.64 288.12 1003.68 288.312C1003.87 288.987 1004.21 289.421 1004.69 289.613C1005.17 289.71 1005.51 289.999 1005.7 290.48C1004.93 292.022 1003.63 293.178 1001.8 293.949C1000.07 294.624 998.236 295.202 996.309 295.684C995.152 295.876 993.9 295.973 992.551 295.973C991.298 295.973 990.094 295.876 988.938 295.684C987.299 295.395 985.758 294.865 984.312 294.094C982.867 293.227 981.47 292.889 980.121 293.082C979.736 293.178 979.302 293.419 978.82 293.805C978.435 294.19 978.001 294.479 977.52 294.672C976.556 295.346 975.352 295.924 973.906 296.406C972.557 296.792 971.497 297.225 970.727 297.707C968.51 298.96 966.439 300.501 964.512 302.332C962.585 304.163 960.561 305.753 958.441 307.102C957.671 308.643 956.9 310.185 956.129 311.727C955.454 313.172 954.732 314.858 953.961 316.785C953.576 317.652 953.142 318.568 952.66 319.531C952.275 320.398 951.986 321.266 951.793 322.133C951.6 323 951.408 324.06 951.215 325.312C951.118 326.565 950.926 327.721 950.637 328.781C950.444 329.552 950.107 330.227 949.625 330.805C949.24 331.383 949.095 332.105 949.191 332.973C949.384 333.743 949.77 334.37 950.348 334.852C951.022 335.333 951.456 335.911 951.648 336.586C951.841 336.971 951.841 337.405 951.648 337.887C951.552 338.272 951.552 338.706 951.648 339.188C952.034 340.826 952.853 342.319 954.105 343.668C955.454 345.017 956.562 346.318 957.43 347.57C959.453 347.763 961.236 348.1 962.777 348.582C964.415 348.967 966.102 349.305 967.836 349.594C969.474 348.823 971.112 348.197 972.75 347.715C974.484 347.233 976.315 346.655 978.242 345.98C979.688 345.499 981.085 344.776 982.434 343.812C983.879 342.753 985.372 342.126 986.914 341.934C987.203 341.934 987.54 342.03 987.926 342.223C988.311 342.319 988.648 342.319 988.938 342.223C989.708 342.126 990.383 341.837 990.961 341.355C991.539 340.874 992.117 340.44 992.695 340.055C993.37 339.573 994.044 339.188 994.719 338.898C995.49 338.609 996.357 338.561 997.32 338.754C998.284 340.392 998.428 341.693 997.754 342.656C997.176 343.62 996.309 344.535 995.152 345.402C993.996 346.173 992.84 347.04 991.684 348.004C990.624 348.967 990.094 350.22 990.094 351.762C989.227 352.725 988.167 353.737 986.914 354.797C985.661 355.857 984.216 356.724 982.578 357.398C981.904 357.591 981.181 357.784 980.41 357.977C979.736 358.073 979.109 358.217 978.531 358.41C976.508 359.181 974.629 360 972.895 360.867C971.16 361.734 968.992 362.12 966.391 362.023C964.849 362.023 963.452 361.879 962.199 361.59C961.139 361.397 960.128 361.06 959.164 360.578C958.297 360.096 957.333 359.759 956.273 359.566C954.924 359.374 953.576 359.374 952.227 359.566C950.878 359.759 949.625 359.759 948.469 359.566C947.312 359.374 946.108 358.94 944.855 358.266C943.603 357.495 942.398 356.724 941.242 355.953C939.99 355.279 938.785 354.652 937.629 354.074C936.569 353.4 935.509 352.773 934.449 352.195C933.197 351.328 932.137 350.268 931.27 349.016C930.499 347.667 929.535 346.462 928.379 345.402C927.897 343.475 927.704 341.596 927.801 339.766C927.897 337.839 927.897 335.911 927.801 333.984C927.704 332.25 927.367 330.467 926.789 328.637C926.307 326.806 926.163 325.168 926.355 323.723C926.548 323.048 926.789 322.326 927.078 321.555C927.367 320.784 927.56 319.965 927.656 319.098C927.849 317.749 928.042 316.544 928.234 315.484C928.523 314.328 928.957 313.22 929.535 312.16C929.921 311.486 930.354 310.859 930.836 310.281C931.414 309.703 931.944 309.125 932.426 308.547C933.004 307.969 933.486 307.342 933.871 306.668C934.257 305.993 934.497 305.126 934.594 304.066C935.172 303.296 935.846 302.717 936.617 302.332C937.484 301.947 938.159 301.368 938.641 300.598C938.93 300.116 939.074 299.634 939.074 299.152C939.074 298.671 939.267 298.189 939.652 297.707C940.134 297.129 940.857 296.503 941.82 295.828C942.784 295.154 943.603 294.576 944.277 294.094C946.204 293.034 948.228 292.07 950.348 291.203C952.467 290.24 954.443 289.083 956.273 287.734C957.43 287.734 958.538 287.59 959.598 287.301C960.754 286.915 961.814 286.53 962.777 286.145C963.837 285.663 964.897 285.229 965.957 284.844C967.017 284.362 968.125 284.025 969.281 283.832C970.341 283.736 971.497 283.736 972.75 283.832C974.003 283.832 975.207 283.784 976.363 283.688C978.098 283.591 979.832 283.543 981.566 283.543C983.397 283.447 985.035 283.495 986.48 283.688C987.155 283.784 987.829 284.025 988.504 284.41C989.178 284.699 989.901 284.844 990.672 284.844C991.346 284.844 992.021 284.699 992.695 284.41C993.466 284.121 994.189 283.928 994.863 283.832C996.79 283.639 998.766 283.639 1000.79 283.832C1002.81 283.928 1004.79 284.073 1006.71 284.266ZM1084.62 296.984C1085.58 298.911 1086.3 300.694 1086.79 302.332C1087.27 303.97 1087.65 306.186 1087.94 308.98C1088.13 310.908 1088.33 312.642 1088.52 314.184C1088.81 315.629 1088.86 317.46 1088.66 319.676C1088.57 321.217 1088.33 322.855 1087.94 324.59C1087.56 326.228 1087.07 327.77 1086.5 329.215C1085.63 331.816 1084.81 334.081 1084.04 336.008C1083.27 337.935 1082.35 340.007 1081.29 342.223C1080.62 343.475 1079.94 344.487 1079.27 345.258C1078.6 346.029 1077.87 346.848 1077.1 347.715C1076.91 348.004 1076.72 348.341 1076.52 348.727C1076.43 349.112 1076.23 349.449 1075.95 349.738C1074.69 351.184 1072.96 352.677 1070.74 354.219C1068.62 355.76 1066.65 356.868 1064.82 357.543C1064.14 357.736 1063.42 357.88 1062.65 357.977C1061.97 357.977 1061.25 358.073 1060.48 358.266C1059.52 358.651 1058.7 359.229 1058.02 360C1057.35 360.674 1056.48 361.156 1055.42 361.445C1054.84 361.638 1054.12 361.783 1053.25 361.879C1052.48 362.072 1051.71 362.264 1050.94 362.457C1049.01 362.939 1046.61 363.421 1043.71 363.902C1040.92 364.384 1038.32 364.336 1035.91 363.758C1035.52 363.661 1035.14 363.469 1034.75 363.18C1034.37 362.891 1033.93 362.65 1033.45 362.457C1032.97 362.264 1032.49 362.12 1032.01 362.023C1031.53 361.927 1031.09 361.783 1030.71 361.59C1029.45 361.108 1028.25 360.434 1027.09 359.566C1025.94 358.699 1024.73 358.025 1023.48 357.543C1022.13 356.772 1020.78 356.098 1019.43 355.52C1018.08 354.845 1017.17 353.689 1016.69 352.051C1015.05 351.569 1013.89 350.461 1013.22 348.727C1012.54 346.992 1011.73 345.451 1010.76 344.102C1010.47 343.62 1010.04 343.234 1009.46 342.945C1008.98 342.56 1008.64 342.126 1008.45 341.645C1007.77 340.585 1007.24 338.898 1006.86 336.586C1006.47 334.177 1006.23 332.154 1006.14 330.516C1006.04 328.781 1006.14 327.143 1006.43 325.602C1006.81 323.964 1007.2 322.374 1007.58 320.832C1008.06 319.29 1008.55 317.797 1009.03 316.352C1009.61 314.906 1010.09 313.509 1010.47 312.16C1010.86 310.522 1011.58 309.221 1012.64 308.258C1013.7 307.294 1014.71 306.234 1015.68 305.078C1016.06 304.693 1016.35 304.259 1016.54 303.777C1016.74 303.296 1017.02 302.814 1017.41 302.332C1018.18 301.368 1019.05 300.549 1020.01 299.875C1020.98 299.104 1021.89 298.333 1022.76 297.562C1023.72 296.792 1024.73 296.069 1025.79 295.395C1026.85 294.624 1027.72 293.853 1028.39 293.082C1029.17 292.022 1029.74 290.962 1030.13 289.902C1030.61 288.842 1031.33 287.927 1032.3 287.156C1033.36 286.289 1034.51 285.663 1035.77 285.277C1037.11 284.892 1038.66 284.458 1040.39 283.977C1042.03 283.591 1043.62 283.061 1045.16 282.387C1046.8 281.616 1048.53 281.134 1050.36 280.941C1052.1 280.749 1053.98 280.652 1056 280.652C1058.02 280.556 1060 280.604 1061.93 280.797C1063.95 280.99 1065.83 281.327 1067.56 281.809C1069.39 282.29 1070.98 282.965 1072.33 283.832C1073.01 284.217 1073.68 284.796 1074.36 285.566C1075.13 286.337 1075.85 287.06 1076.52 287.734C1078.07 289.276 1079.37 290.866 1080.43 292.504C1081.58 294.046 1082.98 295.539 1084.62 296.984ZM1053.11 290.48C1052.72 290.48 1052.15 290.625 1051.38 290.914C1050.7 291.203 1049.98 291.54 1049.21 291.926C1048.53 292.215 1047.91 292.552 1047.33 292.938C1046.75 293.323 1046.32 293.612 1046.03 293.805C1044.87 294.865 1043.81 296.214 1042.85 297.852C1041.98 299.393 1040.97 300.79 1039.81 302.043C1039.33 302.525 1038.8 302.91 1038.22 303.199C1037.74 303.392 1037.36 303.681 1037.07 304.066C1035.43 305.897 1034.22 308.017 1033.45 310.426C1032.78 312.835 1032.06 315.147 1031.29 317.363C1030.42 319.676 1029.6 322.277 1028.83 325.168C1028.06 328.059 1027.82 330.805 1028.11 333.406C1028.2 333.984 1028.39 334.755 1028.68 335.719C1029.07 336.586 1029.41 337.405 1029.7 338.176C1030.08 339.043 1030.42 339.91 1030.71 340.777C1031.09 341.548 1031.48 342.271 1031.86 342.945C1032.44 344.102 1033.16 345.354 1034.03 346.703C1034.99 347.956 1036.05 349.064 1037.21 350.027C1038.46 350.895 1039.81 351.569 1041.26 352.051C1042.8 352.436 1044.44 352.388 1046.17 351.906C1047.23 351.521 1048.53 350.943 1050.07 350.172C1051.62 349.305 1053.01 348.486 1054.27 347.715C1056.1 346.559 1057.4 345.402 1058.17 344.246C1058.94 342.993 1059.71 341.404 1060.48 339.477C1060.67 338.995 1060.91 338.561 1061.2 338.176C1061.59 337.694 1061.93 337.212 1062.21 336.73C1062.79 335.671 1063.27 334.514 1063.66 333.262C1064.05 332.009 1064.53 330.805 1065.11 329.648C1066.26 327.047 1066.98 324.542 1067.27 322.133C1067.56 319.724 1067.8 316.833 1068 313.461C1068.09 311.63 1067.95 310.281 1067.56 309.414C1067.27 308.547 1067.03 307.342 1066.84 305.801C1066.74 304.741 1066.7 303.777 1066.7 302.91C1066.7 301.947 1066.5 301.128 1066.12 300.453C1065.64 299.586 1064.72 299.008 1063.37 298.719C1062.12 298.43 1061.11 297.9 1060.34 297.129C1059.57 295.876 1058.75 294.672 1057.88 293.516C1057.01 292.359 1055.95 291.396 1054.7 290.625C1054.22 290.721 1053.88 290.721 1053.69 290.625C1053.49 290.529 1053.3 290.48 1053.11 290.48ZM1098.64 357.398C1096.61 358.073 1094.83 357.832 1093.29 356.676C1091.75 355.423 1090.78 353.978 1090.4 352.34C1090.21 351.569 1090.21 350.413 1090.4 348.871C1090.59 347.233 1090.88 345.932 1091.27 344.969C1091.65 343.909 1092.47 342.656 1093.72 341.211C1094.98 339.766 1095.94 338.128 1096.61 336.297C1097.29 334.562 1097.82 332.924 1098.2 331.383C1098.68 329.745 1099.36 328.444 1100.23 327.48C1100.9 326.806 1101.62 326.228 1102.39 325.746C1103.17 325.168 1103.6 324.445 1103.7 323.578C1103.7 322.807 1103.45 322.133 1102.97 321.555C1102.59 320.977 1102.44 320.206 1102.54 319.242C1102.54 318.375 1102.78 317.267 1103.26 315.918C1103.84 314.569 1104.37 313.365 1104.85 312.305C1105.91 309.992 1106.73 307.632 1107.31 305.223C1107.5 304.548 1107.65 303.777 1107.74 302.91C1107.93 301.947 1108.13 301.224 1108.32 300.742C1108.61 300.357 1108.9 299.73 1109.19 298.863C1109.57 297.996 1110.01 297.129 1110.49 296.262C1110.97 295.395 1111.5 294.624 1112.08 293.949C1112.66 293.178 1113.28 292.648 1113.96 292.359C1114.73 292.07 1115.55 291.878 1116.41 291.781C1117.38 291.589 1118.24 291.299 1119.02 290.914C1119.88 290.625 1120.41 290.288 1120.61 289.902C1120.8 289.517 1121.28 289.132 1122.05 288.746C1122.63 288.553 1123.21 288.457 1123.79 288.457C1124.46 288.457 1125.13 288.361 1125.81 288.168C1126.58 287.879 1127.4 287.445 1128.27 286.867C1129.13 286.289 1130.14 286.337 1131.3 287.012C1131.78 287.301 1132.26 288.168 1132.75 289.613C1133.23 291.059 1133.71 292.408 1134.19 293.66C1134.38 294.335 1134.62 295.154 1134.91 296.117C1135.3 297.081 1135.64 298.092 1135.93 299.152C1136.21 300.116 1136.5 301.031 1136.79 301.898C1137.08 302.669 1137.32 303.247 1137.52 303.633C1138 304.596 1138.33 305.608 1138.53 306.668C1138.72 307.728 1139.01 308.691 1139.39 309.559C1139.88 310.522 1140.36 311.438 1140.84 312.305C1141.32 313.172 1141.8 314.135 1142.29 315.195C1142.77 316.255 1143.2 317.267 1143.59 318.23C1143.97 319.194 1144.45 320.206 1145.03 321.266C1145.42 322.036 1145.99 322.759 1146.77 323.434C1147.54 324.012 1148.02 324.686 1148.21 325.457C1148.5 326.228 1148.5 327.095 1148.21 328.059C1147.92 328.926 1147.87 329.745 1148.07 330.516C1148.36 331.576 1148.98 332.443 1149.95 333.117C1150.91 333.792 1151.78 334.514 1152.55 335.285C1153.03 335.863 1153.32 336.441 1153.41 337.02C1153.51 337.598 1153.94 337.983 1154.71 338.176C1154.91 336.345 1155.1 334.755 1155.29 333.406C1155.58 332.057 1155.87 330.757 1156.16 329.504C1156.45 328.155 1156.74 326.806 1157.03 325.457C1157.32 324.012 1157.56 322.422 1157.75 320.688C1158.71 319.435 1159.58 318.279 1160.35 317.219C1161.12 316.062 1161.46 314.569 1161.36 312.738C1161.27 312.16 1161.07 311.582 1160.79 311.004C1160.59 310.426 1160.54 309.799 1160.64 309.125C1160.74 308.161 1160.93 307.294 1161.22 306.523C1161.51 305.753 1161.89 304.789 1162.38 303.633C1162.66 302.862 1162.9 302.091 1163.1 301.32C1163.29 300.453 1163.53 299.538 1163.82 298.574C1164.11 297.803 1164.35 297.177 1164.54 296.695C1164.83 296.214 1165.12 295.78 1165.41 295.395C1165.7 294.913 1165.94 294.431 1166.13 293.949C1166.33 293.371 1166.52 292.552 1166.71 291.492C1167 289.854 1167.14 288.457 1167.14 287.301C1167.14 286.145 1167.39 284.988 1167.87 283.832C1168.64 282.098 1169.84 280.652 1171.48 279.496C1173.21 278.243 1174.85 277.232 1176.39 276.461C1179.09 276.557 1181.31 277.28 1183.04 278.629C1184.78 279.882 1185.89 281.423 1186.37 283.254C1187.04 284.988 1186.99 286.434 1186.22 287.59C1185.45 288.65 1184.68 289.854 1183.91 291.203C1183.43 292.07 1183.04 292.889 1182.75 293.66C1182.56 294.431 1182.37 295.202 1182.18 295.973C1182.08 296.647 1181.93 297.37 1181.74 298.141C1181.65 298.911 1181.4 299.779 1181.02 300.742C1180.73 301.706 1180.3 302.525 1179.72 303.199C1179.14 303.777 1178.76 304.404 1178.56 305.078C1178.85 306.427 1178.95 307.535 1178.85 308.402C1178.85 309.27 1178.71 310.089 1178.42 310.859C1178.23 311.534 1177.98 312.257 1177.7 313.027C1177.5 313.702 1177.31 314.473 1177.12 315.34C1176.92 316.014 1176.83 316.689 1176.83 317.363C1176.83 318.038 1176.73 318.664 1176.54 319.242C1176.25 320.398 1175.86 321.458 1175.38 322.422C1174.9 323.385 1174.42 324.301 1173.94 325.168C1173.26 326.613 1172.49 327.962 1171.62 329.215C1170.85 330.467 1170.37 332.154 1170.18 334.273C1170.08 335.622 1169.99 336.827 1169.89 337.887C1169.89 338.85 1169.84 339.766 1169.75 340.633C1169.75 341.5 1169.6 342.415 1169.31 343.379C1169.12 344.342 1168.83 345.499 1168.45 346.848C1168.25 347.618 1167.96 348.389 1167.58 349.16C1167.29 349.835 1167.05 350.557 1166.86 351.328C1166.28 353.833 1165.46 355.76 1164.4 357.109C1163.34 358.362 1161.75 359.663 1159.63 361.012C1158.47 361.301 1157.32 361.59 1156.16 361.879C1155 362.168 1153.85 362.312 1152.69 362.312C1151.63 362.312 1150.62 362.12 1149.66 361.734C1148.69 361.445 1147.87 360.771 1147.2 359.711C1146.72 358.94 1146.19 357.832 1145.61 356.387C1145.13 354.845 1144.55 353.352 1143.88 351.906C1143.59 351.232 1143.25 350.605 1142.86 350.027C1142.57 349.353 1142.33 348.678 1142.14 348.004C1141.66 346.944 1141.32 346.029 1141.13 345.258C1141.03 344.487 1140.74 343.427 1140.26 342.078C1139.59 339.958 1138.53 338.368 1137.08 337.309C1135.64 336.249 1134.38 335.092 1133.32 333.84C1133.23 332.876 1133.08 332.009 1132.89 331.238C1132.7 330.467 1132.26 329.841 1131.59 329.359C1131.4 329.167 1131.16 329.07 1130.87 329.07C1130.58 328.974 1130.34 328.781 1130.14 328.492C1129.86 328.107 1129.66 327.673 1129.57 327.191C1129.47 326.613 1129.28 326.18 1128.99 325.891C1128.8 325.698 1128.51 325.264 1128.12 324.59C1127.74 323.915 1127.35 323.241 1126.96 322.566C1126.68 321.892 1126.34 321.314 1125.95 320.832C1125.57 320.254 1125.28 320.013 1125.09 320.109C1124.6 320.109 1124.12 320.495 1123.64 321.266C1123.26 322.036 1122.82 322.904 1122.34 323.867C1121.95 324.831 1121.57 325.794 1121.18 326.758C1120.8 327.625 1120.46 328.251 1120.17 328.637C1119.69 329.311 1119.3 330.323 1119.02 331.672C1118.82 332.924 1118.53 333.936 1118.15 334.707C1117.47 335.863 1116.85 337.02 1116.27 338.176C1115.79 339.332 1115.93 340.585 1116.7 341.934C1116.7 342.608 1116.51 343.186 1116.12 343.668C1115.84 344.053 1115.79 344.728 1115.98 345.691C1115.4 346.751 1114.82 347.956 1114.25 349.305C1113.76 350.654 1113.23 352.147 1112.66 353.785C1112.37 354.749 1112.13 355.76 1111.93 356.82C1111.74 357.784 1111.5 358.747 1111.21 359.711C1110.92 360.578 1110.49 361.349 1109.91 362.023C1109.43 362.698 1108.75 363.083 1107.89 363.18C1106.73 363.372 1105.77 363.228 1105 362.746C1104.23 362.264 1103.5 361.686 1102.83 361.012C1102.15 360.434 1101.48 359.807 1100.8 359.133C1100.13 358.362 1099.41 357.784 1098.64 357.398Z" fill="#4688EA"/>
</g>
<path d="M1196 398.25C1174.59 398.25 1157.25 415.594 1157.25 437C1157.25 458.406 1174.59 475.75 1196 475.75C1217.41 475.75 1234.75 458.406 1234.75 437C1234.75 415.594 1217.41 398.25 1196 398.25ZM1178.5 434.5C1178.5 433.094 1179.12 431.844 1180.06 430.906L1175.22 429.5C1173.97 429.031 1173.19 427.625 1173.5 426.375C1173.97 424.969 1175.38 424.344 1176.62 424.656L1189.12 428.406C1190.53 428.875 1191.31 430.281 1190.84 431.531C1190.53 432.625 1189.59 433.25 1188.5 433.25C1188.34 433.25 1188.34 433.25 1188.19 433.25C1188.34 433.719 1188.5 434.188 1188.5 434.5C1188.5 437.312 1186.16 439.5 1183.5 439.5C1180.69 439.5 1178.5 437.312 1178.5 434.5ZM1204.75 458.719C1200.38 453.406 1191.47 453.406 1187.09 458.719C1185.06 461.219 1181.16 457.938 1183.34 455.438C1186.47 451.688 1191 449.5 1195.84 449.5C1200.84 449.5 1205.38 451.688 1208.5 455.438C1210.69 458.094 1206.78 461.219 1204.75 458.719ZM1216.62 429.5L1211.78 430.906C1212.72 431.844 1213.5 433.094 1213.5 434.5C1213.5 437.312 1211.16 439.5 1208.5 439.5C1205.69 439.5 1203.5 437.312 1203.5 434.5C1203.5 434.188 1203.66 433.719 1203.66 433.25H1203.5C1202.41 433.25 1201.31 432.625 1201 431.531C1200.69 430.281 1201.47 428.875 1202.72 428.406L1215.22 424.656C1216.47 424.344 1217.88 424.969 1218.34 426.375C1218.66 427.625 1218.03 429.031 1216.62 429.5Z" fill="#970101" fill-opacity="0.37"/>
<path d="M1186 76.3828C1184.09 76.3828 1182.72 77.8867 1182.72 79.6641C1182.86 89.6445 1181.49 99.0781 1178.89 108.648C1178.48 110.016 1179.16 112.75 1182.04 112.75C1183.54 112.75 1184.77 111.93 1185.18 110.426C1187.09 103.863 1189.42 93.3359 1189.28 79.6641C1189.28 77.8867 1187.78 76.3828 1186 76.3828ZM1185.86 65.3086C1177.52 65.3086 1171.64 71.7344 1171.78 79.1172C1171.78 85.6797 1171.23 92.2422 1169.87 98.5312C1169.59 100.309 1170.69 102.086 1172.46 102.496C1174.24 102.77 1176.02 101.676 1176.29 99.8984C1177.8 93.0625 1178.34 86.0898 1178.34 78.9805C1178.21 75.4258 1181.08 71.8711 1185.73 71.8711C1189.96 71.8711 1193.52 75.2891 1193.66 79.3906C1193.66 85.9531 1193.25 92.6523 1192.15 99.0781C1191.88 100.855 1193.11 102.496 1194.89 102.77C1197.62 103.316 1198.58 100.719 1198.58 100.172C1199.81 93.3359 1200.22 86.2266 1200.22 79.2539C1200.08 71.7344 1193.66 65.4453 1185.86 65.3086ZM1170.69 62.5742C1169.32 61.4805 1167.27 61.6172 1166.04 62.9844C1162.62 67.3594 1160.71 72.8281 1160.84 78.2969C1160.84 83.4922 1160.43 88.6875 1159.48 93.6094C1159.2 95.5234 1160.43 97.1641 1162.21 97.4375C1164.95 97.9844 1165.9 95.5234 1166.04 94.8398C1167 89.3711 1167.41 83.7656 1167.41 78.2969C1167.27 74.1953 1168.64 70.3672 1171.23 67.2227C1172.33 65.7188 1172.05 63.668 1170.69 62.5742ZM1185.73 54.0977C1183.54 53.9609 1181.49 54.2344 1179.44 54.7812C1177.66 55.1914 1176.57 56.9688 1176.98 58.6094C1177.39 60.3867 1179.16 61.4805 1180.94 61.0703C1182.45 60.7969 1183.95 60.6602 1185.59 60.6602C1195.84 60.7969 1204.46 69 1204.59 78.9805C1204.59 84.1758 1204.32 89.3711 1203.77 94.5664C1203.64 96.3438 1204.87 97.9844 1206.64 98.1211C1208.97 98.3945 1210.2 96.6172 1210.34 95.25C1210.88 90.4648 1211.16 85.6797 1211.16 80.7578C1211.16 80.0742 1211.16 79.5273 1211.16 78.8438C1210.88 65.4453 1199.54 54.2344 1185.73 54.0977ZM1220.18 70.6406C1219.77 68.8633 1217.99 67.7695 1216.21 68.1797C1214.44 68.5898 1213.34 70.2305 1213.75 72.0078C1214.3 75.0156 1214.44 77.2031 1214.3 80.4844C1214.3 82.2617 1215.8 83.7656 1217.58 83.7656C1219.5 83.7656 1220.86 82.3984 1220.86 80.4844C1221 77.4766 1221 74.4688 1220.18 70.6406ZM1214.57 58.1992C1208.01 48.7656 1197.07 43.0234 1185.45 42.8867C1176.02 42.75 1167.13 46.168 1160.57 52.7305C1154.28 59.1562 1150.86 67.6328 1151 76.5195V79.5273C1150.86 81.3047 1152.37 82.8086 1154.14 82.8086C1154.14 82.8086 1154.14 82.8086 1154.28 82.8086C1155.92 82.8086 1157.43 81.4414 1157.43 79.6641L1157.56 76.3828C1157.43 69.2734 1160.16 62.5742 1165.22 57.3789C1170.55 52.1836 1177.66 49.3125 1185.45 49.4492C1194.89 49.5859 1203.77 54.2344 1209.24 62.0273C1210.34 63.5312 1212.39 63.8047 1213.89 62.8477C1215.26 61.7539 1215.67 59.7031 1214.57 58.1992Z" fill="#B6A0A0" fill-opacity="0.42"/>
<path d="M408.344 536.895L405.355 533.906L396.215 543.047L391.469 538.301C389.887 536.719 387.25 536.719 385.668 538.301L382.504 541.465C377.934 539.355 372.836 538.125 367.562 538.125C347.348 538.125 331 554.648 331 574.688C331 594.902 347.348 611.25 367.562 611.25C387.602 611.25 404.125 594.902 404.125 574.688C404.125 569.414 402.895 564.316 400.785 559.746L403.949 556.582C405.531 555 405.531 552.363 403.949 550.605L399.203 546.035L408.344 536.895ZM418.891 531.797H414.672C413.441 531.797 412.562 532.852 412.562 533.906C412.562 535.137 413.441 536.016 414.672 536.016H418.891C419.945 536.016 421 535.137 421 533.906C421 532.852 419.945 531.797 418.891 531.797ZM408.344 521.25C407.113 521.25 406.234 522.305 406.234 523.359V527.578C406.234 528.809 407.113 529.688 408.344 529.688C409.398 529.688 410.453 528.809 410.453 527.578V523.359C410.453 522.305 409.398 521.25 408.344 521.25ZM414.145 530.918L417.133 527.93C418.012 527.227 418.012 525.82 417.133 524.941C416.43 524.238 415.023 524.238 414.145 524.941L411.156 527.93C410.453 528.809 410.453 530.215 411.156 530.918C412.035 531.797 413.441 531.797 414.145 530.918ZM402.367 530.918C403.07 531.797 404.477 531.797 405.355 530.918C406.059 530.215 406.059 528.809 405.355 527.93L402.367 524.941C401.488 524.238 400.082 524.238 399.379 524.941C398.5 525.82 398.5 527.227 399.379 527.93L402.367 530.918ZM414.145 536.895C413.441 536.191 412.035 536.191 411.156 536.895C410.453 537.773 410.453 539.18 411.156 539.883L414.145 542.871C415.023 543.75 416.43 543.75 417.133 542.871C418.012 542.168 418.012 540.762 417.133 539.883L414.145 536.895ZM350.688 569.062C350.688 570.645 349.281 571.875 347.875 571.875C346.293 571.875 345.062 570.645 345.062 569.062C345.062 559.922 352.621 552.188 361.938 552.188C363.344 552.188 364.75 553.594 364.75 555C364.75 556.582 363.344 557.812 361.938 557.812C355.609 557.812 350.688 562.91 350.688 569.062Z" fill="#52584E" fill-opacity="0.54"/>
<path d="M108.75 480.062V453.5H69.6875C66.9531 453.5 65 455.648 65 458.188V548.812C65 551.547 66.9531 553.5 69.6875 553.5H135.312C137.852 553.5 140 551.547 140 548.812V484.75H113.438C110.703 484.75 108.75 482.797 108.75 480.062ZM123.594 521.469L104.844 540.219C103.477 541.391 101.328 541.391 99.9609 540.219L81.2109 521.469C79.2578 519.516 80.625 516 83.3594 516H96.25V500.375C96.25 498.812 97.6172 497.25 99.375 497.25H105.625C107.188 497.25 108.75 498.812 108.75 500.375V516H121.445C124.18 516 125.547 519.516 123.594 521.469ZM138.633 474.008L119.492 454.867C118.516 454.086 117.344 453.5 116.172 453.5H115V478.5H140V477.328C140 476.156 139.414 474.984 138.633 474.008Z" fill="#C8CA57" fill-opacity="0.39"/>
<path d="M633.156 454.312C636.457 454.312 639.25 451.646 639.25 448.219C639.25 444.918 636.457 442.125 633.156 442.125C629.729 442.125 627.062 444.918 627.062 448.219C627.062 451.646 629.729 454.312 633.156 454.312ZM632.648 469.674C633.283 470.309 634.172 470.562 635.061 470.562C635.061 470.562 635.061 470.562 635.188 470.562H643.312C645.471 470.562 647.375 468.785 647.375 466.5C647.375 464.342 645.471 462.438 643.312 462.438H636.584L627.57 455.201C626.809 454.693 625.92 454.312 625.031 454.312C624.016 454.312 623 454.693 622.365 455.328L608.146 467.516C607.258 468.277 606.75 469.42 606.75 470.562C606.75 472.086 607.385 473.229 608.527 473.99L618.938 480.973V494.938C618.938 497.223 620.715 499 623 499C625.158 499 627.062 497.223 627.062 494.938V478.688C626.936 477.291 626.301 476.148 625.158 475.387L619.953 471.832L627.316 465.484L632.648 469.674ZM647.375 474.625C638.361 474.625 631.125 481.988 631.125 490.875C631.125 499.889 638.361 507.125 647.375 507.125C656.262 507.125 663.625 499.889 663.625 490.875C663.625 481.988 656.262 474.625 647.375 474.625ZM647.375 499C642.805 499 639.25 495.445 639.25 490.875C639.25 486.432 642.805 482.75 647.375 482.75C651.818 482.75 655.5 486.432 655.5 490.875C655.5 495.445 651.818 499 647.375 499ZM598.625 474.625C589.611 474.625 582.375 481.988 582.375 490.875C582.375 499.889 589.611 507.125 598.625 507.125C607.512 507.125 614.875 499.889 614.875 490.875C614.875 481.988 607.512 474.625 598.625 474.625ZM598.625 499C594.055 499 590.5 495.445 590.5 490.875C590.5 486.432 594.055 482.75 598.625 482.75C603.068 482.75 606.75 486.432 606.75 490.875C606.75 495.445 603.068 499 598.625 499Z" fill="#DD16EE" fill-opacity="0.37"/>
<path d="M291.93 198.102C292.398 196.812 292.75 195.523 292.75 194C292.75 187.789 287.711 182.75 281.5 182.75C279.156 182.75 276.93 183.453 275.172 184.742C272.008 179.117 265.914 175.25 259 175.25C248.57 175.25 240.25 183.688 240.25 194C240.25 194.352 240.25 194.703 240.25 195.055C233.688 197.281 229 203.609 229 210.875C229 220.25 236.5 227.75 245.875 227.75H289C297.203 227.75 304 221.07 304 212.75C304 205.602 298.844 199.508 291.93 198.102ZM276.344 208.531L264.039 220.836C263.336 221.539 262.047 221.539 261.344 220.836L249.039 208.531C247.867 207.359 248.688 205.25 250.328 205.25H258.062V192.125C258.062 191.188 258.883 190.25 259.938 190.25H265.562C266.5 190.25 267.438 191.188 267.438 192.125V205.25H275.055C276.695 205.25 277.516 207.359 276.344 208.531Z" fill="#8BBFDD" fill-opacity="0.52"/>
<path d="M672.117 224.25C673.348 224.602 674.402 223.898 674.754 222.844L698.836 140.227C699.188 138.996 698.484 137.766 697.43 137.59L686.707 134.426C685.477 134.074 684.422 134.777 684.07 135.832L659.988 218.449C659.637 219.68 660.34 220.734 661.395 221.086L672.117 224.25ZM652.078 204.562L659.812 196.301C660.691 195.422 660.516 194.191 659.637 193.312L643.816 179.25L659.637 165.363C660.516 164.484 660.691 163.078 659.812 162.375L652.078 154.113C651.375 153.234 649.969 153.234 649.09 154.113L623.777 177.844C622.898 178.547 622.898 179.953 623.777 180.832L649.09 204.562C649.969 205.441 651.375 205.441 652.078 204.562ZM709.734 204.562L735.047 180.832C735.926 180.129 735.926 178.547 735.047 177.844L709.734 154.113C708.855 153.234 707.449 153.234 706.746 154.113L699.012 162.199C698.309 163.078 698.309 164.484 699.188 165.363L715.184 179.25L699.188 193.312C698.309 194.191 698.133 195.422 699.012 196.301L706.746 204.562C707.449 205.441 708.855 205.441 709.734 204.562Z" fill="#8F3F26" fill-opacity="0.31"/>
<path d="M912.469 473.125H851.531C848.104 473.125 845.438 475.918 845.438 479.219V519.844C845.438 523.271 848.104 525.938 851.531 525.938H875.906L873.875 532.031H864.734C862.957 532.031 861.688 533.428 861.688 535.078C861.688 536.855 862.957 538.125 864.734 538.125H899.266C900.916 538.125 902.312 536.855 902.312 535.078C902.312 533.428 900.916 532.031 899.266 532.031H890.125L888.094 525.938H912.469C915.77 525.938 918.562 523.271 918.562 519.844V479.219C918.562 475.918 915.77 473.125 912.469 473.125ZM910.438 517.812H853.562V481.25H910.438V517.812Z" fill="#BF5D5D" fill-opacity="0.32"/>
<path d="M301.674 378.627L279.33 387.006C277.289 387.758 276 389.691 276 391.84V416.01C276 417.943 277.074 419.77 278.793 420.629L301.137 431.801C302.641 432.553 304.252 432.553 305.756 431.801L328.1 420.629C329.818 419.77 330.893 417.943 330.893 416.01V391.84C330.893 389.691 329.604 387.758 327.562 387.006L305.219 378.627C304.145 378.197 302.855 378.197 301.674 378.627ZM303.5 385.287L324.125 393.021V393.129L303.5 401.508L282.875 393.129V393.021L303.5 385.287ZM306.938 423.529V407.523L324.125 400.541V414.936L306.938 423.529Z" fill="#7277F5" fill-opacity="0.21"/>
<path d="M1093.88 547.312H1097.94C1098.95 547.312 1099.97 546.424 1099.97 545.281V541.219C1099.97 540.203 1098.95 539.188 1097.94 539.188H1077.62C1076.48 539.188 1075.59 540.203 1075.59 541.219V545.281C1075.59 546.424 1076.48 547.312 1077.62 547.312H1081.69V563.562H1057.31V547.312H1061.38C1062.39 547.312 1063.41 546.424 1063.41 545.281V541.219C1063.41 540.203 1062.39 539.188 1061.38 539.188H1041.06C1039.92 539.188 1039.03 540.203 1039.03 541.219V545.281C1039.03 546.424 1039.92 547.312 1041.06 547.312H1045.12V587.938H1041.06C1039.92 587.938 1039.03 588.953 1039.03 589.969V594.031C1039.03 595.174 1039.92 596.062 1041.06 596.062H1061.38C1062.39 596.062 1063.41 595.174 1063.41 594.031V589.969C1063.41 588.953 1062.39 587.938 1061.38 587.938H1057.31V571.688H1081.69V587.938H1077.62C1076.48 587.938 1075.59 588.953 1075.59 589.969V594.031C1075.59 595.174 1076.48 596.062 1077.62 596.062H1097.94C1098.95 596.062 1099.97 595.174 1099.97 594.031V589.969C1099.97 588.953 1098.95 587.938 1097.94 587.938H1093.88V547.312Z" fill="#1749FB" fill-opacity="0.46"/>
<path d="M486.387 105.738C485.625 104.977 484.736 104.215 483.848 103.58C482.959 102.945 481.943 103.072 481.182 103.707L478.516 106.373C477.5 107.516 476.992 108.912 476.992 110.182C476.992 110.943 477.373 111.451 477.881 111.832C478.262 112.086 478.77 112.467 479.277 112.848C482.832 116.529 482.832 122.242 479.277 125.797L470.645 134.303C467.09 137.984 461.25 137.984 457.695 134.303C454.141 130.748 454.268 124.908 457.822 121.354L459.473 119.703C460.107 119.195 460.234 118.307 459.98 117.545C459.219 115.387 458.838 113.102 458.711 110.943C458.711 109.166 456.553 108.277 455.283 109.547L450.586 114.244C443.096 121.734 443.096 134.049 450.586 141.539C458.076 149.029 470.391 149.029 477.881 141.539L486.387 133.033C486.387 133.033 486.387 133.033 486.387 132.906C493.877 125.543 494.004 113.355 486.387 105.738ZM504.287 87.8379C496.797 80.3477 484.482 80.3477 476.992 87.8379L468.486 96.3438C468.486 96.3438 468.486 96.3438 468.486 96.4707C460.996 103.834 460.869 116.021 468.486 123.639C469.248 124.4 470.137 125.162 471.025 125.797C471.914 126.432 472.93 126.305 473.691 125.67L476.357 123.004C477.373 121.861 477.881 120.465 477.881 119.195C477.881 118.434 477.5 117.926 476.992 117.545C476.611 117.291 476.104 116.91 475.596 116.529C472.041 112.848 472.041 107.135 475.596 103.58L484.229 95.0742C487.783 91.3926 493.623 91.3926 497.178 95.0742C500.732 98.6289 500.605 104.469 497.051 108.023L495.4 109.674C494.766 110.182 494.639 111.07 494.893 111.832C495.654 113.99 496.035 116.275 496.162 118.434C496.162 120.211 498.32 121.1 499.59 119.83L504.287 115.133C511.777 107.643 511.777 95.3281 504.287 87.8379Z" fill="#A2A52F" fill-opacity="0.47"/>
<path d="M958 155.75C958 166.18 966.32 174.5 976.75 174.5H984.25C994.562 174.5 1003 166.18 1003 155.75V140.75H958V155.75ZM978.625 114.5H976.75C966.32 114.5 958 122.938 958 133.25V137H978.625V114.5ZM984.25 114.5H982.375V137H1003V133.25C1003 122.938 994.562 114.5 984.25 114.5Z" fill="#BCB9B9" fill-opacity="0.42"/>
<defs>
<filter id="filter0_di" x="68.3341" y="244.156" width="1128.51" height="142.288" filterUnits="userSpaceOnUse" color-interpolation-filters="sRGB">
<feFlood flood-opacity="0" result="BackgroundImageFix"/>
<feColorMatrix in="SourceAlpha" type="matrix" values="0 0 0 0 0 0 0 0 0 0 0 0 0 0 0 0 0 0 127 0" result="hardAlpha"/>
<feOffset dy="4"/>
<feGaussianBlur stdDeviation="5"/>
<feComposite in2="hardAlpha" operator="out"/>
<feColorMatrix type="matrix" values="0 0 0 0 0 0 0 0 0 0 0 0 0 0 0 0 0 0 0.25 0"/>
<feBlend mode="normal" in2="BackgroundImageFix" result="effect1_dropShadow"/>
<feBlend mode="normal" in="SourceGraphic" in2="effect1_dropShadow" result="shape"/>
<feColorMatrix in="SourceAlpha" type="matrix" values="0 0 0 0 0 0 0 0 0 0 0 0 0 0 0 0 0 0 127 0" result="hardAlpha"/>
<feOffset dy="4"/>
<feGaussianBlur stdDeviation="2"/>
<feComposite in2="hardAlpha" operator="arithmetic" k2="-1" k3="1"/>
<feColorMatrix type="matrix" values="0 0 0 0 0 0 0 0 0 0 0 0 0 0 0 0 0 0 0.25 0"/>
<feBlend mode="normal" in2="shape" result="effect2_innerShadow"/>
</filter>
</defs>
</svg>
